<?xml version="1.0" standalone="no"?>
<!DOCTYPE svg PUBLIC "-//W3C//DTD SVG 1.1//EN" "http://www.w3.org/Graphics/SVG/1.1/DTD/svg11.dtd" >
<svg xmlns="http://www.w3.org/2000/svg">
<metadata>
This is a custom SVG webfont generated by Font Squirrel.
Copyright   : Copyright c 1992 Corel Corporation All Rights Reserved
</metadata>
<defs>
<font id="BahamasNormal" horiz-adv-x="1140" >
<font-face units-per-em="2048" ascent="1638" descent="-410" />
<missing-glyph horiz-adv-x="905" />
<glyph unicode=" "  horiz-adv-x="905" />
<glyph unicode="&#x09;" horiz-adv-x="905" />
<glyph unicode="&#xa0;" horiz-adv-x="905" />
<glyph unicode="!" horiz-adv-x="456" d="M96 104q0 53 35 88t84 35q57 0 95 -32.5t38 -94.5q0 -53 -36 -89t-93 -36q-51 0 -87 36t-36 93zM135 328v1108h172v-1108h-172z" />
<glyph unicode="&#x22;" horiz-adv-x="679" d="M113 881v555h168v-555h-168zM403 881v555h168v-555h-168z" />
<glyph unicode="#" d="M63 440l9 131h217l39 293h-203l6 131h217l60 441h147l-59 -441h243l62 441h147l-59 -441h182l-4 -131h-199l-41 -293h189l-8 -131h-199l-61 -440h-148l59 440h-239l-64 -440h-147l63 440h-209zM436 571h244l41 293h-246z" />
<glyph unicode="$" d="M176 1149q0 152 115 229q92 61 221 62v164h156v-168h276v-172h-276v-365q229 -143 276 -213q55 -80 55 -199q0 -121 -63 -194q-84 -96 -268 -96v-222h-156v222h-328v172h328v395q-199 125 -215 139q-121 105 -121 246zM356 1149q0 -57 41 -104.5t115 -79.5v299 q-78 0 -117 -33t-39 -82zM668 369q152 0 151 143q0 49 -43 94q-33 35 -108 86v-323z" />
<glyph unicode="%" horiz-adv-x="1820" d="M96 1120q0 152 98.5 246t241.5 94q139 0 233.5 -94t94.5 -229q0 -156 -98.5 -252.5t-237.5 -96.5q-129 0 -225 86q-107 94 -107 246zM252 1128q0 -82 53 -131t127 -49q70 0 121 49.5t51 139.5q0 78 -50 118.5t-122 40.5t-126 -45t-54 -123zM344 -25l952 1485h127 l-952 -1485h-127zM1004 307q0 145 97 242.5t251 97.5q156 0 245 -115q78 -98 78 -225q0 -152 -102 -246q-94 -86 -225 -86q-164 0 -263 115q-81 96 -81 217zM1163 311q0 -88 62 -137q49 -39 110 -39q70 0 121 41q59 47 60 127q0 84 -50.5 134t-126.5 50q-78 0 -127 -55 t-49 -121z" />
<glyph unicode="&#x26;" horiz-adv-x="1368" d="M72 559q0 166 84 309q66 113 155 172q-49 63 -72.5 109.5t-23.5 93.5q0 84 47 133q57 59 174 60h580v-181h-559q-51 0 -58 -26q4 -14 11.5 -25.5t17.5 -23.5l625 -799q20 35 31.5 78t11.5 90q0 82 -38 170t-97 153l126 132q90 -82 140 -187q57 -119 57 -258 q0 -109 -19.5 -166t-88.5 -178l172 -211h-236l-72 76q-61 -45 -127 -68q-98 -33 -254 -32q-203 0 -364 114q-223 158 -223 465zM268 563q0 -162 109.5 -282.5t281.5 -120.5q96 0 153.5 15t119.5 65l-500 649q-78 -45 -121 -140.5t-43 -185.5z" />
<glyph unicode="'" horiz-adv-x="456" d="M117 1024l71 412h177l-97 -412h-151z" />
<glyph unicode="(" horiz-adv-x="796" d="M147 563q0 231 76 428q63 162 174 293q88 102 195 176l80 -108q-59 -55 -119 -109q-104 -111 -164 -250q-82 -193 -82 -448q0 -254 105 -475q98 -209 260 -330l-72 -125q-260 197 -373 496q-80 210 -80 452z" />
<glyph unicode=")" horiz-adv-x="796" d="M129 -272q186 156 274.5 358.5t88.5 445.5q0 291 -117 519q-96 188 -246 288l72 121q188 -119 311 -346q139 -258 139 -577q0 -279 -110 -517q-117 -250 -332 -401z" />
<glyph unicode="*" horiz-adv-x="1024" d="M129 893l270 143l-270 140l80 129l252 -172l-25 299h156l-25 -299l256 172l76 -129l-270 -140l270 -143l-80 -129l-252 164l25 -287h-156l25 287l-252 -168z" />
<glyph unicode="+" horiz-adv-x="1228" d="M125 416v159h412v408h159v-408h412v-159h-412v-416h-159v416h-412z" />
<glyph unicode="," horiz-adv-x="567" d="M129 -205l84 402h190l-114 -402h-160z" />
<glyph unicode="-" horiz-adv-x="567" d="M55 408v163h461v-163h-461z" />
<glyph unicode="." horiz-adv-x="567" d="M164 113q0 49 34.5 81.5t82.5 32.5q49 0 85.5 -29.5t36.5 -84.5q0 -57 -35.5 -91t-86.5 -34q-49 0 -83 34t-34 91z" />
<glyph unicode="/" horiz-adv-x="567" d="M-12 -25l436 1485h156l-433 -1485h-159z" />
<glyph unicode="0" d="M68 492v460q0 223 148.5 365.5t350.5 142.5q260 0 398 -190q106 -147 106 -330v-461q0 -182 -123 -329q-145 -174 -381 -175q-248 0 -385 179q-114 148 -114 338zM276 516q0 -176 76 -262t215 -86q135 0 216 83t81 245v444q0 164 -82 246t-215 82q-137 0 -214 -88 t-77 -232v-432z" />
<glyph unicode="1" d="M227 1255l58 181h399v-1436h-197v1255h-260z" />
<glyph unicode="2" d="M63 139q0 45 21.5 85t58.5 65l553 432q76 59 118 130t42 165q0 104 -74 180q-82 84 -219 84q-131 0 -211 -92q-72 -82 -71 -193q0 -141 102 -221q72 -55 170 -69l-172 -134q-141 55 -219 165t-78 263q0 188 131 320q141 141 365 141q248 0 376 -172q96 -129 97 -280 q0 -141 -56 -238q-66 -113 -254 -258l-428 -332h729v-180h-755q-113 0 -169.5 39t-56.5 100z" />
<glyph unicode="3" d="M92 0v180h483q131 0 204 79t73 185q0 111 -80 181q-86 76 -231 75h-248v140l446 415h-614v181h600q127 0 178 -41q45 -35 45 -111q0 -59 -41 -117q-29 -41 -98 -102l-225 -188q195 0 321 -107q143 -121 144 -334q0 -190 -125 -313t-312 -123h-520z" />
<glyph unicode="4" d="M16 444q2 14 4 31l13 37l512 924h211l-516 -924h432v621l196 335v-956h215v-180h-215v-332h-196v332h-525q-72 0 -101.5 31.5t-29.5 80.5z" />
<glyph unicode="5" d="M117 0v180h483q135 0 201 88q51 70 51 172q0 127 -66 191q-74 70 -237 69h-373v736h748v-181h-551v-374h202q213 0 338 -97q147 -115 148 -348q0 -188 -118 -312t-275 -124h-551z" />
<glyph unicode="6" d="M47 492q0 139 47 235q18 37 115 172l379 537h239l-395 -551q-84 -115 -113 -164q-72 -121 -71 -252q0 -117 86 -211q94 -102 233 -102q135 0 232.5 95t97.5 236q0 174 -108.5 263.5t-296.5 89.5l116 164q236 0 369 -160q119 -143 119 -348q0 -201 -135 -351 q-152 -166 -394 -165q-223 0 -371.5 146.5t-148.5 365.5z" />
<glyph unicode="7" d="M92 1255v181h717q111 0 169 -28t58 -108q0 -51 -37 -137l-516 -1163h-223l559 1255h-727z" />
<glyph unicode="8" d="M55 424q0 117 58.5 214t175.5 177q-66 57 -99 117q-39 70 -38 160q0 139 98 243q119 125 330 125q174 0 285.5 -105.5t111.5 -271.5q0 -88 -41 -161q-31 -55 -88 -111q131 -72 184 -176q47 -90 47 -232q0 -172 -140 -300t-364 -128q-270 0 -411 164q-109 127 -109 285z M268 436q0 -125 82 -204.5t221 -79.5q125 0 209 69q92 76 92 207q0 143 -102 219q-82 61 -199 62q-147 0 -229 -86q-74 -76 -74 -187zM360 1071q0 -68 52 -121q59 -61 159 -61q111 10 160 72q37 47 37 122q0 70 -39 123q-53 74 -162 74q-90 0 -148.5 -52.5t-58.5 -156.5z " />
<glyph unicode="9" d="M51 944q0 184 129 336q154 180 400 180q213 0 362.5 -145.5t149.5 -358.5q0 -106 -40 -206.5t-112 -200.5l-387 -549h-238l449 633q72 96 102.5 165.5t30.5 153.5q0 125 -90 224q-96 104 -227 104q-133 0 -228 -90q-104 -100 -104 -270q0 -145 106.5 -234.5t292.5 -89.5 l-110 -164q-270 0 -396 189q-90 135 -90 323z" />
<glyph unicode=":" horiz-adv-x="567" d="M164 109q0 53 34.5 85.5t82.5 32.5q47 0 87 -33.5t40 -89.5q0 -53 -48 -88q-39 -29 -75 -28q-49 0 -85 32t-36 89zM164 700q0 49 34.5 84t82.5 35q47 0 84.5 -31.5t37.5 -87.5q0 -53 -31.5 -86.5t-78.5 -33.5q-63 0 -100 41q-29 30 -29 79z" />
<glyph unicode=";" horiz-adv-x="567" d="M129 -205l86 406h193l-119 -406h-160zM164 696q0 59 36 93t85 34q45 0 84 -36.5t39 -90.5q0 -49 -34 -82.5t-81 -33.5q-51 0 -90 32.5t-39 83.5z" />
<glyph unicode="&#x3c;" horiz-adv-x="1228" d="M125 420v139l983 436v-159l-784 -349l784 -348v-159z" />
<glyph unicode="=" horiz-adv-x="1228" d="M125 213v160h983v-160h-983zM125 616v160h983v-160h-983z" />
<glyph unicode="&#x3e;" horiz-adv-x="1228" d="M125 -20v159l782 348l-782 349v159l983 -436v-139z" />
<glyph unicode="?" horiz-adv-x="907" d="M51 1004q0 197 122 326.5t314 129.5q174 0 293 -125t119 -286q0 -178 -101.5 -298t-260.5 -143v-280h-177v452q154 0 232 39q117 59 117 213q0 98 -58 168q-66 80 -180 80q-113 0 -172 -88q-51 -76 -51 -188h-197zM319 109q0 51 38 86.5t87 35.5t90 -31.5t41 -90.5 q0 -61 -37.5 -97.5t-93.5 -36.5q-49 0 -87 38.5t-38 95.5z" />
<glyph unicode="A" d="M80 0l4 952q0 221 137 364.5t342 143.5q221 0 359.5 -144.5t138.5 -408.5v-907h-193v651h-516v185h516l2 53q0 391 -295 391q-160 0 -239 -121q-59 -90 -60 -207v-952h-196z" />
<glyph unicode="B" d="M121 0v1044q0 164 121 285q131 131 329 131q201 0 335 -103.5t134 -285.5q0 -127 -39 -197q-27 -47 -102 -106q109 -59 160 -152q45 -82 45 -184q0 -205 -122 -318.5t-306 -113.5h-289v180h277q104 0 170 51q78 61 77 185q0 123 -84 184q-70 51 -186 51h-254v180h225 q127 0 189 78q47 59 47 152q0 109 -75 164t-193 55q-127 0 -198 -77t-71 -183v-1020h-190z" />
<glyph unicode="C" horiz-adv-x="1024" d="M72 725q0 309 243 520q221 190 478 191h184v-181h-154q-266 0 -415 -174q-131 -152 -132 -368q0 -186 97 -328q139 -205 446 -205h158v-180h-193q-311 0 -511.5 207t-200.5 518z" />
<glyph unicode="D" horiz-adv-x="1251" d="M125 0v1436h379q256 0 454 -174q229 -203 230 -535q0 -279 -160 -485q-186 -242 -516 -242h-117v184h133q203 0 338 183q121 162 121 360q0 225 -143 373q-152 156 -395 155h-134v-1255h-190z" />
<glyph unicode="E" horiz-adv-x="1024" d="M47 709q0 272 141 452q113 143 310 217q154 57 299 58h147v-181h-156q-233 0 -389 -141q-133 -121 -151 -278h696v-185h-696q0 -168 125 -309q143 -162 366 -162h205v-180h-172q-276 0 -489 184q-236 206 -236 525z" />
<glyph unicode="F" horiz-adv-x="796" d="M55 0v987q0 233 142 348q123 100 335 101h207v-181h-207q-285 0 -284 -264v-186h491v-180h-491v-625h-193z" />
<glyph unicode="G" horiz-adv-x="1591" d="M47 727q0 352 262 559q221 174 502 174q180 0 317 -63q125 -57 261 -193l-125 -143q-117 100 -197 145q-129 74 -258 74q-258 0 -418 -180q-143 -162 -143 -375q0 -221 143 -387q158 -182 414 -182q236 0 387 157q135 141 135 316h-504v180h705v-145q0 -303 -228 -502 q-213 -186 -495 -187q-317 0 -535 211q-223 217 -223 541z" />
<glyph unicode="H" horiz-adv-x="1251" d="M125 0v1440h190v-600h621v604h197v-1444h-197v659h-621v-659h-190z" />
<glyph unicode="I" horiz-adv-x="456" d="M131 0v1436h197v-1436h-197z" />
<glyph unicode="J" horiz-adv-x="679" d="M0 0v180h135q121 0 192.5 67.5t71.5 196.5v992h193v-965q0 -193 -84 -307q-121 -164 -399 -164h-109z" />
<glyph unicode="K" d="M131 0v1436h193v-605h172q86 0 147 72q39 45 92 164l168 369h217l-205 -445q-23 -57 -57 -104q-47 -61 -102 -86q143 -39 215 -127q82 -100 82 -271v-403h-197l4 412q0 113 -63 172q-72 68 -226 67h-247v-651h-193z" />
<glyph unicode="L" horiz-adv-x="796" d="M131 424v1012h188v-936q0 -158 64 -234q72 -86 233 -86h185v-180h-234q-150 0 -274 90q-162 117 -162 334z" />
<glyph unicode="M" horiz-adv-x="1591" d="M0 0l160 1276q8 84 58 136t114 52q55 0 100 -39t68 -116l301 -990l286 969q27 86 74 129t103 43q63 0 110 -43t53 -112l172 -1305h-202l-142 1176l-327 -1072q-14 -53 -52 -84.5t-83 -31.5q-88 0 -125 112l-328 1080l-135 -1180h-205z" />
<glyph unicode="N" horiz-adv-x="1251" d="M104 0v1255q0 94 47.5 145.5t116.5 51.5q113 0 168 -113l520 -1067v1164h193v-1319q0 -63 -42 -96t-103 -33q-59 0 -110.5 29.5t-70.5 78.5l-526 1092v-1188h-193z" />
<glyph unicode="O" horiz-adv-x="1591" d="M47 743q0 297 232 512q221 205 497 205q293 0 512 -174q260 -207 260 -561q0 -289 -209 -514q-219 -236 -528 -236q-307 0 -526 201q-238 219 -238 567zM252 743q0 -246 156.5 -418.5t388.5 -172.5q178 0 340 122q211 160 211 443q0 227 -144 387q-158 176 -411 176 q-219 0 -380 -159t-161 -378z" />
<glyph unicode="P" horiz-adv-x="1024" d="M84 0v977q0 215 136 349t329 134q180 0 313 -112q154 -131 154 -349q0 -201 -127 -333q-115 -121 -260 -121h-277v180h211q145 0 213 106q47 74 47 168q0 104 -51 179q-72 102 -223 102q-152 0 -221 -111q-51 -82 -52 -196v-973h-192z" />
<glyph unicode="Q" horiz-adv-x="1591" d="M47 725q0 313 221 524t525 211q272 0 497 -184q258 -211 258 -533q0 -295 -192 -514q-180 -205 -420 -233v-293h-193v766h193v-297q178 43 291 186q121 154 121 377q0 213 -150 373q-158 168 -389 168q-262 0 -422 -180q-143 -162 -143 -375q0 -193 116.5 -349.5 t286.5 -195.5v-184q-217 31 -385 194q-215 209 -215 539z" />
<glyph unicode="R" d="M100 -4v903q0 272 117 414.5t358 142.5q186 0 310 -108q131 -117 131 -304q0 -100 -42 -185t-122 -128q188 -74 188 -287v-444h-192v408q-18 217 -260 217h-211v180h172q104 0 180 53q94 66 94 186q0 111 -84 177q-72 55 -168 55q-135 0 -211 -90q-68 -80 -67 -191v-999 h-193z" />
<glyph unicode="S" horiz-adv-x="1024" d="M47 0v180h506q100 0 157.5 36t69.5 120q0 90 -51 151q-43 53 -141 101q-127 61 -252 125q-137 76 -197 145q-80 94 -80 221q0 168 119 269q104 88 242 88h491v-181h-491q-82 0 -127 -48t-45 -120q0 -37 18.5 -71.5t48.5 -54.5q90 -63 215 -123q164 -78 187 -90 q143 -86 205 -187q51 -86 51 -192q0 -141 -82 -240q-106 -129 -324 -129h-520z" />
<glyph unicode="T" horiz-adv-x="907" d="M4 1255v181h903v-181h-354v-1255h-193v1255h-356z" />
<glyph unicode="U" d="M96 469v967h193v-949q0 -178 88 -262q74 -70 194 -69q135 0 213 104q68 90 68 209v967h192v-953q0 -229 -143 -370q-135 -133 -338 -133q-199 0 -333 136t-134 353z" />
<glyph unicode="V" d="M-29 1436h201l408 -1188l393 1188h198l-428 -1319q-18 -57 -45 -88q-45 -53 -114 -54q-66 0 -106 40t-70 128z" />
<glyph unicode="W" horiz-adv-x="1820" d="M104 424v1012h193v-936q0 -182 54.5 -263t203.5 -81q129 0 203 92q57 72 57 151v1037h193v-1041q12 -121 96 -186q70 -53 168 -53q94 0 164 51q92 68 92 196v1033h192v-1049q0 -195 -143 -309q-127 -102 -309 -103q-152 0 -248 72q-72 53 -105 133q-76 -131 -192 -174 q-72 -27 -203 -26q-205 0 -319 153q-97 129 -97 291z" />
<glyph unicode="X" d="M8 0v184q176 0 311 140q150 154 150 389q0 215 -115 368q-129 174 -346 174v181q209 0 365.5 -114t197.5 -298q41 186 211 303q158 109 351 109v-181q-170 0 -299 -125q-158 -152 -158 -417q0 -211 128 -372t304 -161l25 4v-184q-205 0 -372 127t-190 293 q-35 -180 -192.5 -300t-370.5 -120z" />
<glyph unicode="Y" horiz-adv-x="1024" d="M47 999v437h193v-453q0 -98 61 -162q76 -78 223 -78q143 0 211 95q49 68 49 153v445h193v-455q0 -168 -119 -287q-104 -102 -250 -131v-563h-196v563q-139 35 -232 117q-133 120 -133 319z" />
<glyph unicode="Z" horiz-adv-x="1024" d="M29 139q0 72 63 176l672 940h-655v181h702q82 0 118 -35t36 -96q0 -43 -18.5 -93.5t-43.5 -87.5l-663 -944h747v-180h-790q-66 0 -113 33q-55 38 -55 106z" />
<glyph unicode="[" horiz-adv-x="796" d="M231 -356v1792h357v-97h-180v-1595h180v-100h-357z" />
<glyph unicode="\" horiz-adv-x="567" d="M-129 1460h162l663 -1485h-159z" />
<glyph unicode="]" horiz-adv-x="796" d="M209 -256h178v1579h-178v113h354v-1792h-354v100z" />
<glyph unicode="^" horiz-adv-x="1228" d="M117 584l420 852h155l424 -848h-172l-328 672l-327 -676h-172z" />
<glyph unicode="_" horiz-adv-x="1024" d="M0 -152h1024v-104h-1024v104z" />
<glyph unicode="`" horiz-adv-x="567" d="M12 1397h224l184 -293h-139z" />
<glyph unicode="a" d="M51 500q0 217 129 354q139 150 387 150q231 0 369 -138q125 -125 125 -313v-553h-184v567q0 115 -88.5 189.5t-235.5 74.5q-117 0 -205 -67q-117 -88 -117 -264q0 -160 101 -258q92 -90 221 -90q141 0 252 137v-217q-80 -51 -109 -64q-66 -29 -159 -28q-190 0 -332 137 q-154 150 -154 383z" />
<glyph unicode="b" d="M84 492v944h180v-924q0 -152 88 -256t232 -104q156 0 245 114q78 98 78 230q0 168 -102 258q-88 78 -213 77q-78 0 -143 -24q-45 -16 -113 -59v188q55 35 119.5 51.5t124.5 16.5q217 0 362 -135.5t145 -352.5q0 -221 -129 -373q-139 -164 -374 -163q-217 0 -358.5 150.5 t-141.5 361.5z" />
<glyph unicode="c" horiz-adv-x="796" d="M88 487q0 201 125 342q137 154 362 154h181v-172h-156q-109 0 -201 -72q-119 -92 -118 -256q0 -115 79 -204q94 -106 248 -107h148v-172h-181q-229 0 -368 168q-119 143 -119 319z" />
<glyph unicode="d" d="M55 469q0 250 156 401q133 129 293 129q123 0 201 -20q55 -14 104 -47v-193q-49 33 -109 56q-88 33 -180 32q-123 -12 -205 -99t-82 -232l3 -43q14 -164 129 -244q88 -61 198 -62q150 0 234 111t84 287v887h180v-961q0 -162 -111 -307q-143 -188 -397 -189 q-250 0 -387 177q-111 141 -111 317z" />
<glyph unicode="e" d="M63 469q0 258 170 408q145 127 334 127q168 0 284 -77t198 -235l-664 -368l-78 145l490 270q-43 43 -70 58q-63 35 -160 34q-143 0 -229 -102t-86 -254q0 -127 84 -221q92 -102 239 -102q150 0 228 81q70 72 100 228l180 -25q0 -160 -129 -297q-154 -164 -391 -164 q-201 0 -350.5 145.5t-149.5 348.5z" />
<glyph unicode="f" horiz-adv-x="567" d="M109 0v1075q0 190 116 287q90 74 207 74h176v-172h-129q-98 0 -145 -50q-37 -39 -45 -110v-121h295v-172h-295v-811h-180z" />
<glyph unicode="g" d="M68 483q0 262 178 406q143 115 329 115q203 0 344.5 -131.5t141.5 -327.5v-504q0 -221 -136.5 -363.5t-369.5 -142.5q-111 0 -185.5 15.5t-150.5 41.5l45 164q92 -27 153.5 -38t131.5 -11q145 0 238.5 81t93.5 212v479q0 158 -89.5 255t-211.5 97q-141 0 -232 -77 q-104 -90 -104 -271l4 -30q0 -115 84 -203q94 -98 239 -98q59 0 112.5 19t125.5 60v-188q-66 -31 -128.5 -47t-125.5 -16q-209 0 -348 147t-139 356z" />
<glyph unicode="h" horiz-adv-x="1024" d="M100 0v1436h176v-533q59 49 125 72.5t152 23.5q166 0 268 -94q115 -104 115 -297v-608h-184v575q0 123 -60.5 187.5t-163.5 64.5q-133 0 -198 -88q-53 -70 -54 -176v-563h-176z" />
<glyph unicode="i" horiz-adv-x="567" d="M176 1208q0 43 33 74t76 31q41 0 73.5 -31t32.5 -78q0 -49 -29.5 -78.5t-72.5 -29.5q-45 0 -79 29.5t-34 82.5zM193 0v983h180v-983h-180z" />
<glyph unicode="j" horiz-adv-x="456" d="M-131 -268h80q123 0 162 71q29 53 28 197v983h180v-1083q0 -150 -88 -242q-98 -102 -278 -102h-84v176zM121 1200q0 53 29.5 83t72.5 30q51 0 82 -28t31 -89q0 -47 -35 -73.5t-70 -26.5q-41 0 -71 24q-39 31 -39 80z" />
<glyph unicode="k" horiz-adv-x="907" d="M109 0v1436h180v-815h92q68 6 101.5 35.5t88.5 136.5l113 190h205q-78 -131 -158 -263t-135 -140q123 -18 184 -99q51 -68 51 -166v-315h-180v260q0 92 -36.5 140.5t-127.5 48.5h-198v-449h-180z" />
<glyph unicode="l" horiz-adv-x="456" d="M135 0v1436h180v-1436h-180z" />
<glyph unicode="m" horiz-adv-x="1480" d="M100 0v676q0 133 101.5 230.5t267.5 97.5q98 0 174 -50q51 -33 96 -90q41 59 111 97q82 43 186 43q139 0 241.5 -96.5t102.5 -231.5v-676h-180v621q0 82 -35 137q-47 74 -141 73q-102 0 -154 -69q-39 -53 -39 -141v-621h-184v608q0 100 -47 161.5t-135 61.5 q-109 0 -152 -75q-33 -57 -32 -160v-596h-181z" />
<glyph unicode="n" horiz-adv-x="1024" d="M92 0v600q0 170 123 289t301 119q141 0 262 -93q158 -119 158 -331v-584h-180v580q0 104 -67.5 180t-172.5 76q-100 0 -170 -72t-70 -168v-596h-184z" />
<glyph unicode="o" d="M51 496l4 8q0 213 160 360q152 139 348 140q199 0 348 -127q168 -143 168 -377q0 -193 -118 -344q-137 -176 -361 -176q-246 0 -401 153q-148 146 -148 363zM244 508q0 -143 69 -238q88 -119 262 -118q141 0 222 79q92 92 92 285q0 141 -91 228t-231 87q-156 0 -245 -106 q-78 -92 -78 -217z" />
<glyph unicode="p" d="M84 -440v932q0 256 166 395q137 117 325 117q252 0 396 -179q117 -145 116 -325q0 -190 -94 -332q-125 -188 -372 -188q-74 0 -136.5 12t-148.5 59v189q111 -53 113 -56q74 -33 151 -32q141 0 224 98t83 250q0 154 -98 245t-229 91q-123 0 -211 -91q-104 -106 -105 -296 v-889h-180z" />
<glyph unicode="q" d="M51 471l4 16q0 238 148 381q139 135 346 136q197 0 342 -121q170 -141 170 -387v-936h-180v901q0 197 -111 297q-86 78 -207 78q-119 0 -213 -78q-115 -94 -114 -262q0 -156 88 -248t213 -92q72 0 137 16q88 23 135 68v-189q-57 -33 -134 -50t-151 -17q-209 0 -348 161 q-125 146 -125 326z" />
<glyph unicode="r" horiz-adv-x="567" d="M92 0v983h172v-115q37 59 94 95q70 41 162 41h55v-173h-43q-139 0 -208 -116q-51 -86 -52 -199v-516h-180z" />
<glyph unicode="s" horiz-adv-x="907" d="M59 0v168h494l14 -4q51 6 74 16q43 23 43 72q0 78 -156 129q-123 35 -188 55q-145 49 -207 105q-74 66 -74 176q0 147 113 213q86 51 223 51h424v-172h-459q-113 0 -112 -88q6 -59 106 -98q33 -12 191 -52q170 -49 246.5 -124.5t76.5 -190.5q0 -152 -116 -215 q-76 -41 -203 -41h-62h-428z" />
<glyph unicode="t" horiz-adv-x="679" d="M121 307v926h178v-250h352v-172h-352v-539q0 -41 31.5 -70.5t97.5 -29.5h223v-172h-227q-158 0 -236 92q-67 80 -67 215z" />
<glyph unicode="u" horiz-adv-x="1024" d="M92 424v559h180v-592q0 -104 72 -171.5t164 -67.5q104 0 174 73.5t70 165.5v592h180v-584q0 -180 -118 -299.5t-306 -119.5q-172 0 -285 102q-131 119 -131 342z" />
<glyph unicode="v" horiz-adv-x="907" d="M-29 983h197l289 -764l286 764h193l-344 -911q-39 -92 -139 -92q-47 0 -87 27.5t-55 76.5z" />
<glyph unicode="w" horiz-adv-x="1480" d="M100 319v664h181v-639q0 -80 44 -136t128 -56q88 0 135 43q59 55 59 178v610h184v-627q0 -109 60 -159q51 -45 137 -45q78 0 125 57t47 168v606h180v-686q0 -141 -114 -234q-104 -84 -226 -83q-111 0 -173 29.5t-128 107.5q-43 -59 -102 -92q-80 -45 -184 -45 q-182 0 -279 126q-74 96 -74 213z" />
<glyph unicode="x" horiz-adv-x="796" d="M16 0v172q125 0 211 104q80 96 80 216q0 115 -71 208q-84 109 -220 109v172q123 0 221.5 -60.5t157.5 -181.5q49 129 185 195q100 49 204 49v-174q-127 -12 -212 -97t-85 -220q0 -164 123 -254q88 -66 174 -66v-172q-158 0 -266 84q-66 51 -123 143q-57 -117 -155.5 -172 t-223.5 -55z" />
<glyph unicode="y" horiz-adv-x="1024" d="M104 352v635h181v-588q0 -106 47 -168q57 -76 180 -75q109 0 168 69.5t59 169.5v592h185v-588q0 -150 -74 -256q-82 -119 -246 -159v-420h-184v420q-145 41 -223 122q-93 96 -93 246z" />
<glyph unicode="z" horiz-adv-x="796" d="M33 121q4 39 17 77t46 74l441 539h-465v172h487q90 0 135 -37t45 -98t-43 -117l-456 -559h503v-172h-579q-53 0 -92 33t-39 88z" />
<glyph unicode="{" horiz-adv-x="796" d="M68 479v121q74 0 116.5 64.5t42.5 144.5v375q0 102 55.5 177t149.5 75h164v-97h-100q-84 0 -84 -180v-362q0 -78 -29 -135q-41 -80 -131 -121q90 -41 125 -108.5t35 -172.5v-395q0 -55 21.5 -92t70.5 -37h92v-96h-172q-80 0 -135 67q-61 74 -62 197v311 q0 125 -36.5 189.5t-122.5 74.5z" />
<glyph unicode="|" horiz-adv-x="456" d="M147 0v1436h160v-1436h-160z" />
<glyph unicode="}" horiz-adv-x="796" d="M201 -264h92q49 0 71.5 35.5t22.5 93.5v395q0 102 35 171t123 110q-90 41 -129 118q-29 57 -29 138v362q0 96 -18.5 138t-69.5 42h-98v97h164q92 0 147 -75t55 -177v-375q0 -80 43 -144.5t117 -64.5v-121q-84 -10 -122 -75.5t-38 -188.5v-311q0 -121 -57 -192.5 t-137 -71.5h-172v96z" />
<glyph unicode="~" horiz-adv-x="1228" d="M139 465q47 90 111.5 133t140.5 43q88 0 187 -43q225 -98 253 -98q53 0 98.5 34.5t86.5 112.5l71 -127q-61 -88 -112 -127q-66 -49 -152 -49q-49 0 -258 94q-100 45 -178 45q-55 0 -97 -38.5t-75 -108.5z" />
<glyph unicode="&#xa2;" horiz-adv-x="567" d="M4 1395l137 -2q0 -63 31 -105q39 -51 117 -51q61 0 94 33q41 39 41 123l137 2q0 -104 -63 -185q-74 -94 -197 -94q-133 0 -215 80t-82 199z" />
<glyph unicode="&#xa3;" horiz-adv-x="796" d="M27 475v156l104 53v752h188v-658l256 129v-164l-256 -129v-114q0 -158 64 -234q72 -86 233 -86h185v-180h-234q-150 0 -274 90q-162 117 -162 334v104z" />
<glyph unicode="&#xa5;" d="M80 0l4 952q0 221 137 364.5t342 143.5q221 0 359.5 -144.5t138.5 -408.5v-907h-55l-80 -115q-35 -43 -47.5 -74.5t-12.5 -66.5q0 -47 32 -67.5t89 -20.5q43 0 74 6l-29 -86q-10 -6 -32.5 -11t-41.5 -5q-133 0 -198 63q-49 49 -49 113q0 72 26 114q14 23 64 68l98 82h-31 v651h-516v185h516l2 53q0 391 -295 391q-160 0 -239 -121q-59 -90 -60 -207v-952h-196z" />
<glyph unicode="&#xa8;" horiz-adv-x="567" d="M6 1233q0 51 34 80.5t83 29.5t82 -26.5t33 -79.5q0 -59 -33 -92t-82 -33t-83 32t-34 89zM332 1233q0 51 33.5 80.5t83.5 29.5q49 0 81.5 -26.5t32.5 -79.5q0 -59 -32.5 -92t-81.5 -33t-83 32t-34 89z" />
<glyph unicode="&#xa9;" horiz-adv-x="1640" d="M63 725q0 260 177 475q213 260 569 260q334 0 555 -229q213 -221 213 -535q0 -264 -188 -475q-219 -246 -574 -246q-387 0 -594 279q-158 213 -158 471zM236 709q0 -309 213 -476q166 -129 370 -129q219 0 387 150q195 174 195 463q0 250 -166 430t-408 180 q-256 0 -423.5 -180t-167.5 -438zM416 725q0 168 90 291q113 156 325 155q180 0 291 -120q82 -90 90 -187h-147q-25 94 -94 135q-53 33 -140 33q-115 0 -185.5 -79t-70.5 -232q0 -139 77 -226t188 -87q86 0 137 32q70 43 90 144h141q-27 -158 -133 -240q-98 -76 -244 -76 q-180 0 -297.5 126t-117.5 331z" />
<glyph unicode="&#xab;" horiz-adv-x="1024" d="M131 492l256 313l154 4l-252 -317l264 -316h-158zM479 496l256 313h158l-256 -317l266 -316h-160z" />
<glyph unicode="&#xad;" horiz-adv-x="567" d="M55 408v163h461v-163h-461z" />
<glyph unicode="&#xae;" horiz-adv-x="1640" d="M63 739q0 264 185 478q215 248 561 247q317 0 545 -229q219 -221 219 -510q0 -352 -232 -557q-213 -188 -532 -188q-348 0 -557 239q-189 217 -189 520zM236 717q0 -254 162.5 -431t420.5 -177q217 0 379 131q207 168 207 485q0 236 -176 419t-424 183q-231 0 -395 -162 q-174 -172 -174 -448zM528 293v848h340q168 0 238 -78q53 -59 53 -174q0 -98 -58.5 -156.5t-164.5 -68.5l240 -371h-152l-219 366h-133v-366h-144zM668 776h180q94 0 133 31t39 100q0 55 -37 84q-47 37 -152 37h-163v-252z" />
<glyph unicode="&#xb4;" horiz-adv-x="567" d="M147 1075l185 297h223l-262 -297h-146z" />
<glyph unicode="&#xb8;" horiz-adv-x="567" d="M63 -395l37 76q20 -8 59.5 -16.5t71.5 -8.5q55 0 88 19.5t33 68.5q0 33 -29.5 56.5t-74.5 23.5q-33 -6 -72 -25l-41 45l133 176h101l-101 -133l68 13q76 0 124 -44t48 -120q0 -63 -47 -111q-68 -66 -201 -65q-57 0 -102.5 10t-94.5 35z" />
<glyph unicode="&#xbb;" horiz-adv-x="1024" d="M125 176l262 316l-252 317h158l248 -317l-260 -316h-156zM471 176l264 316l-252 317h160l250 -322l-268 -311h-154z" />
<glyph unicode="&#xc1;" d="M80 0l4 952q0 221 137 364.5t342 143.5q221 0 359.5 -144.5t138.5 -408.5v-907h-193v651h-516v185h516l2 53q0 391 -295 391q-160 0 -239 -121q-59 -90 -60 -207v-952h-196zM479 1530l185 297h223l-262 -297h-146z" />
<glyph unicode="&#xc9;" horiz-adv-x="1024" d="M47 709q0 272 141 452q113 143 310 217q154 57 299 58h147v-181h-156q-233 0 -389 -141q-133 -121 -151 -278h696v-185h-696q0 -168 125 -309q143 -162 366 -162h205v-180h-172q-276 0 -489 184q-236 206 -236 525zM614 1530l185 297h223l-262 -297h-146z" />
<glyph unicode="&#xcd;" horiz-adv-x="456" d="M131 0v1436h197v-1436h-197zM147 1530l185 297h223l-262 -297h-146z" />
<glyph unicode="&#xd3;" horiz-adv-x="1591" d="M47 743q0 297 232 512q221 205 497 205q293 0 512 -174q260 -207 260 -561q0 -289 -209 -514q-219 -236 -528 -236q-307 0 -526 201q-238 219 -238 567zM252 743q0 -246 156.5 -418.5t388.5 -172.5q178 0 340 122q211 160 211 443q0 227 -144 387q-158 176 -411 176 q-219 0 -380 -159t-161 -378zM700 1530l185 297h223l-262 -297h-146z" />
<glyph unicode="&#xda;" d="M96 469v967h193v-949q0 -178 88 -262q74 -70 194 -69q135 0 213 104q68 90 68 209v967h192v-953q0 -229 -143 -370q-135 -133 -338 -133q-199 0 -333 136t-134 353zM498 1530l184 297h223l-262 -297h-145z" />
<glyph unicode="&#xdd;" horiz-adv-x="1024" d="M47 999v437h193v-453q0 -98 61 -162q76 -78 223 -78q143 0 211 95q49 68 49 153v445h193v-455q0 -168 -119 -287q-104 -102 -250 -131v-563h-196v563q-139 35 -232 117q-133 120 -133 319zM430 1530l184 297h224l-263 -297h-145z" />
<glyph unicode="&#xe1;" d="M51 500q0 217 129 354q139 150 387 150q231 0 369 -138q125 -125 125 -313v-553h-184v567q0 115 -88.5 189.5t-235.5 74.5q-117 0 -205 -67q-117 -88 -117 -264q0 -160 101 -258q92 -90 221 -90q141 0 252 137v-217q-80 -51 -109 -64q-66 -29 -159 -28q-190 0 -332 137 q-154 150 -154 383zM455 1075l184 297h223l-262 -297h-145z" />
<glyph unicode="&#xe9;" d="M63 469q0 258 170 408q145 127 334 127q168 0 284 -77t198 -235l-664 -368l-78 145l490 270q-43 43 -70 58q-63 35 -160 34q-143 0 -229 -102t-86 -254q0 -127 84 -221q92 -102 239 -102q150 0 228 81q70 72 100 228l180 -25q0 -160 -129 -297q-154 -164 -391 -164 q-201 0 -350.5 145.5t-149.5 348.5zM442 1077l185 297h223l-262 -297h-146z" />
<glyph unicode="&#xed;" horiz-adv-x="567" d="M193 0v983h180v-983h-180zM197 1075l184 297h223l-262 -297h-145z" />
<glyph unicode="&#xf3;" d="M51 496l4 8q0 213 160 360q152 139 348 140q199 0 348 -127q168 -143 168 -377q0 -193 -118 -344q-137 -176 -361 -176q-246 0 -401 153q-148 146 -148 363zM244 508q0 -143 69 -238q88 -119 262 -118q141 0 222 79q92 92 92 285q0 141 -91 228t-231 87q-156 0 -245 -106 q-78 -92 -78 -217zM461 1075l184 297h223l-262 -297h-145z" />
<glyph unicode="&#xfa;" horiz-adv-x="1024" d="M92 424v559h180v-592q0 -104 72 -171.5t164 -67.5q104 0 174 73.5t70 165.5v592h180v-584q0 -180 -118 -299.5t-306 -119.5q-172 0 -285 102q-131 119 -131 342zM430 1075l184 297h224l-263 -297h-145z" />
<glyph unicode="&#xfd;" horiz-adv-x="1024" d="M104 352v635h181v-588q0 -106 47 -168q57 -76 180 -75q109 0 168 69.5t59 169.5v592h185v-588q0 -150 -74 -256q-82 -119 -246 -159v-420h-184v420q-145 41 -223 122q-93 96 -93 246zM418 1075l184 297h223l-262 -297h-145z" />
<glyph unicode="&#x10c;" horiz-adv-x="1024" d="M72 725q0 309 243 520q221 190 478 191h184v-181h-154q-266 0 -415 -174q-131 -152 -132 -368q0 -186 97 -328q139 -205 446 -205h158v-180h-193q-311 0 -511.5 207t-200.5 518zM377 1823h168l133 -197l135 197h164l-203 -293h-188z" />
<glyph unicode="&#x10d;" horiz-adv-x="796" d="M88 487q0 201 125 342q137 154 362 154h181v-172h-156q-109 0 -201 -72q-119 -92 -118 -256q0 -115 79 -204q94 -106 248 -107h148v-172h-181q-229 0 -368 168q-119 143 -119 319zM236 1370h167l134 -196l135 196h164l-203 -293h-189z" />
<glyph unicode="&#x10e;" horiz-adv-x="1251" d="M125 0v1436h379q256 0 454 -174q229 -203 230 -535q0 -279 -160 -485q-186 -242 -516 -242h-117v184h133q203 0 338 183q121 162 121 360q0 225 -143 373q-152 156 -395 155h-134v-1255h-190zM217 1823h168l133 -197l135 197h164l-203 -293h-188z" />
<glyph unicode="&#x10f;" horiz-adv-x="1228" d="M55 469q0 250 156 401q133 129 293 129q123 0 201 -20q55 -14 104 -47v-193q-49 33 -109 56q-88 33 -180 32q-123 -12 -205 -99t-82 -232l3 -43q14 -164 129 -244q88 -61 198 -62q150 0 234 111t84 287v887h180v-961q0 -162 -111 -307q-143 -188 -397 -189 q-250 0 -387 177q-111 141 -111 317zM1108 1141l49 289h125l-68 -289h-106z" />
<glyph unicode="&#x11a;" horiz-adv-x="1024" d="M47 709q0 272 141 452q113 143 310 217q154 57 299 58h147v-181h-156q-233 0 -389 -141q-133 -121 -151 -278h696v-185h-696q0 -168 125 -309q143 -162 366 -162h205v-180h-172q-276 0 -489 184q-236 206 -236 525zM346 1823h168l133 -197l135 197h164l-203 -293h-188z " />
<glyph unicode="&#x11b;" d="M63 469q0 258 170 408q145 127 334 127q168 0 284 -77t198 -235l-664 -368l-78 145l490 270q-43 43 -70 58q-63 35 -160 34q-143 0 -229 -102t-86 -254q0 -127 84 -221q92 -102 239 -102q150 0 228 81q70 72 100 228l180 -25q0 -160 -129 -297q-154 -164 -391 -164 q-201 0 -350.5 145.5t-149.5 348.5zM266 1368h168l133 -197l135 197h164l-202 -293h-189z" />
<glyph unicode="&#x147;" horiz-adv-x="1251" d="M104 0v1255q0 94 47.5 145.5t116.5 51.5q113 0 168 -113l520 -1067v1164h193v-1319q0 -63 -42 -96t-103 -33q-59 0 -110.5 29.5t-70.5 78.5l-526 1092v-1188h-193zM389 1823h168l133 -197l135 197h164l-203 -293h-188z" />
<glyph unicode="&#x148;" horiz-adv-x="1024" d="M92 0v600q0 170 123 289t301 119q141 0 262 -93q158 -119 158 -331v-584h-180v580q0 104 -67.5 180t-172.5 76q-100 0 -170 -72t-70 -168v-596h-184zM211 1368h168l133 -197l135 197h164l-203 -293h-188z" />
<glyph unicode="&#x158;" d="M100 -4v903q0 272 117 414.5t358 142.5q186 0 310 -108q131 -117 131 -304q0 -100 -42 -185t-122 -128q188 -74 188 -287v-444h-192v408q-18 217 -260 217h-211v180h172q104 0 180 53q94 66 94 186q0 111 -84 177q-72 55 -168 55q-135 0 -211 -90q-68 -80 -67 -191v-999 h-193zM297 1823h168l133 -197l135 197h164l-203 -293h-188z" />
<glyph unicode="&#x159;" horiz-adv-x="567" d="M33 1368h168l133 -197l135 197h164l-203 -293h-188zM92 0v983h172v-115q37 59 94 95q70 41 162 41h55v-173h-43q-139 0 -208 -116q-51 -86 -52 -199v-516h-180z" />
<glyph unicode="&#x160;" horiz-adv-x="1024" d="M47 0v180h506q100 0 157.5 36t69.5 120q0 90 -51 151q-43 53 -141 101q-127 61 -252 125q-137 76 -197 145q-80 94 -80 221q0 168 119 269q104 88 242 88h491v-181h-491q-82 0 -127 -48t-45 -120q0 -37 18.5 -71.5t48.5 -54.5q90 -63 215 -123q164 -78 187 -90 q143 -86 205 -187q51 -86 51 -192q0 -141 -82 -240q-106 -129 -324 -129h-520zM217 1823h168l133 -197l135 197h164l-203 -293h-188z" />
<glyph unicode="&#x161;" horiz-adv-x="907" d="M59 0v168h494l14 -4q51 6 74 16q43 23 43 72q0 78 -156 129q-123 35 -188 55q-145 49 -207 105q-74 66 -74 176q0 147 113 213q86 51 223 51h424v-172h-459q-113 0 -112 -88q6 -59 106 -98q33 -12 191 -52q170 -49 246.5 -124.5t76.5 -190.5q0 -152 -116 -215 q-76 -41 -203 -41h-62h-428zM162 1368h168l133 -197l135 197h164l-203 -293h-188z" />
<glyph unicode="&#x164;" horiz-adv-x="907" d="M4 1255v181h903v-181h-354v-1255h-193v1255h-356zM156 1823h168l133 -197l135 197h164l-203 -293h-188z" />
<glyph unicode="&#x165;" horiz-adv-x="679" d="M121 307v926h178v-250h352v-172h-352v-539q0 -41 31.5 -70.5t97.5 -29.5h223v-172h-227q-158 0 -236 92q-67 80 -67 215zM473 1153l49 289h125l-67 -289h-107z" />
<glyph unicode="&#x16e;" d="M96 469v967h193v-949q0 -178 88 -262q74 -70 194 -69q135 0 213 104q68 90 68 209v967h192v-953q0 -229 -143 -370q-135 -133 -338 -133q-199 0 -333 136t-134 353zM426 1675q0 59 43 102.5t102 43.5t102.5 -43t43.5 -103q0 -59 -43 -102t-103 -43q-59 0 -102 43t-43 102 zM500 1675q0 -31 20.5 -51t50.5 -20q31 0 51.5 20.5t20.5 50.5q0 31 -20.5 51.5t-51.5 20.5t-51 -20.5t-20 -51.5z" />
<glyph unicode="&#x16f;" horiz-adv-x="1024" d="M92 424v559h180v-592q0 -104 72 -171.5t164 -67.5q104 0 174 73.5t70 165.5v592h180v-584q0 -180 -118 -299.5t-306 -119.5q-172 0 -285 102q-131 119 -131 342zM371 1221q0 59 43 102t102 43t102.5 -43t43.5 -102t-43.5 -102.5t-102.5 -43.5t-102 43.5t-43 102.5z M444 1221q0 -31 20.5 -51.5t51.5 -20.5t51.5 20.5t20.5 51.5t-20.5 51t-51.5 20t-51.5 -20t-20.5 -51z" />
<glyph unicode="&#x17d;" horiz-adv-x="1024" d="M29 139q0 72 63 176l672 940h-655v181h702q82 0 118 -35t36 -96q0 -43 -18.5 -93.5t-43.5 -87.5l-663 -944h747v-180h-790q-66 0 -113 33q-55 38 -55 106zM217 1823h168l133 -197l135 197h164l-203 -293h-188z" />
<glyph unicode="&#x17e;" horiz-adv-x="796" d="M33 121q4 39 17 77t46 74l441 539h-465v172h487q90 0 135 -37t45 -98t-43 -117l-456 -559h503v-172h-579q-53 0 -92 33t-39 88zM106 1368h168l134 -197l135 197h164l-203 -293h-189z" />
<glyph unicode="&#x2c6;" horiz-adv-x="1228" d="M117 584l420 852h155l424 -848h-172l-328 672l-327 -676h-172z" />
<glyph unicode="&#x2da;" horiz-adv-x="346" d="M33 1221q0 59 43 102t102 43t102.5 -43t43.5 -102t-43 -102.5t-103 -43.5q-59 0 -102 43.5t-43 102.5zM106 1221q0 -31 20.5 -51.5t51.5 -20.5t51.5 20.5t20.5 51.5t-20.5 51t-51.5 20t-51.5 -20t-20.5 -51z" />
<glyph unicode="&#x2dc;" horiz-adv-x="905" d="M-475 252q47 90 111.5 133t140.5 43q88 0 187 -43q225 -98 253 -98q53 0 98.5 34.5t86.5 112.5l71 -127q-61 -88 -112 -127q-66 -49 -152 -49q-49 0 -258 94q-100 45 -178 45q-55 0 -97 -38.5t-75 -108.5z" />
<glyph unicode="&#x2000;" horiz-adv-x="913" />
<glyph unicode="&#x2001;" horiz-adv-x="1826" />
<glyph unicode="&#x2002;" horiz-adv-x="913" />
<glyph unicode="&#x2003;" horiz-adv-x="1826" />
<glyph unicode="&#x2004;" horiz-adv-x="608" />
<glyph unicode="&#x2005;" horiz-adv-x="456" />
<glyph unicode="&#x2006;" horiz-adv-x="303" />
<glyph unicode="&#x2007;" horiz-adv-x="303" />
<glyph unicode="&#x2008;" horiz-adv-x="227" />
<glyph unicode="&#x2009;" horiz-adv-x="364" />
<glyph unicode="&#x200a;" horiz-adv-x="100" />
<glyph unicode="&#x2010;" horiz-adv-x="567" d="M55 408v163h461v-163h-461z" />
<glyph unicode="&#x2011;" horiz-adv-x="567" d="M55 408v163h461v-163h-461z" />
<glyph unicode="&#x2012;" horiz-adv-x="567" d="M55 408v163h461v-163h-461z" />
<glyph unicode="&#x2013;" horiz-adv-x="1024" d="M0 428v127h1024v-127h-1024z" />
<glyph unicode="&#x2014;" horiz-adv-x="2048" d="M-16 549h2044l4 -129h-2044z" />
<glyph unicode="&#x2018;" horiz-adv-x="456" d="M96 1436h172l72 -416h-152z" />
<glyph unicode="&#x2019;" horiz-adv-x="456" d="M117 1024l71 412h177l-97 -412h-151z" />
<glyph unicode="&#x201a;" horiz-adv-x="567" d="M129 -205l84 402h190l-114 -402h-160z" />
<glyph unicode="&#x201c;" horiz-adv-x="796" d="M88 1436h168l76 -416h-152zM465 1436h172l76 -416h-154z" />
<glyph unicode="&#x201d;" horiz-adv-x="796" d="M80 1024l63 420h181l-101 -420h-143zM469 1024l63 420h177l-97 -420h-143z" />
<glyph unicode="&#x201e;" horiz-adv-x="796" d="M88 -209l72 414h172l-96 -414h-148zM465 -209l76 414h172l-97 -414h-151z" />
<glyph unicode="&#x2026;" horiz-adv-x="2048" d="M219 109q0 55 36 86.5t85 31.5q55 0 90 -30.5t35 -92.5q0 -51 -37 -81.5t-88 -30.5q-49 0 -85 31t-36 86zM903 104q0 57 35 90t86 33t88 -32.5t37 -90.5q-6 -53 -42 -82.5t-83 -29.5t-84 30.5t-37 81.5zM1587 109q0 55 34 84.5t83 29.5q55 0 90 -29.5t35 -89.5 q0 -53 -34 -82.5t-83 -29.5t-87 32t-38 85z" />
<glyph unicode="&#x202f;" horiz-adv-x="364" />
<glyph unicode="&#x2039;" horiz-adv-x="679" d="M139 492l256 317h158l-256 -317l266 -316h-155z" />
<glyph unicode="&#x203a;" horiz-adv-x="679" d="M117 176l270 316l-256 317h158l252 -322l-269 -311h-155z" />
<glyph unicode="&#x205f;" horiz-adv-x="456" />
<glyph unicode="&#x2122;" horiz-adv-x="2027" d="M131 1294v131h633v-131h-248v-731h-133v731h-252zM725 567l113 766q8 51 42.5 82t77.5 31q37 0 70 -24.5t49 -69.5l209 -592l201 579q18 53 51 79t72 26q45 0 79.5 -26.5t34.5 -67.5l121 -783h-143l-96 705l-230 -641q-25 -72 -96 -72q-61 0 -86 68l-229 649l-97 -709 h-143z" />
<glyph unicode="&#xe000;" horiz-adv-x="985" d="M0 985h985v-985h-985v985z" />
</font>
</defs>
</svg>
