<?xml version="1.0" standalone="no"?>
<!DOCTYPE svg PUBLIC "-//W3C//DTD SVG 1.1//EN" "http://www.w3.org/Graphics/SVG/1.1/DTD/svg11.dtd" >
<svg xmlns="http://www.w3.org/2000/svg">
<metadata>
This is a custom SVG webfont generated by Font Squirrel.
Copyright   : Copyright c 1992 Corel Corporation All Rights Reserved
</metadata>
<defs>
<font id="BahamasLightNormal" horiz-adv-x="1140" >
<font-face units-per-em="2048" ascent="1638" descent="-410" />
<missing-glyph horiz-adv-x="942" />
<glyph unicode=" "  horiz-adv-x="942" />
<glyph unicode="&#x09;" horiz-adv-x="942" />
<glyph unicode="&#xa0;" horiz-adv-x="942" />
<glyph unicode="!" horiz-adv-x="456" d="M139 68q4 35 22.5 55t57.5 20q74 0 74 -75q0 -33 -21.5 -56.5t-58.5 -23.5q-31 0 -50.5 23.5t-23.5 56.5zM180 285v1175h76v-1175h-76z" />
<glyph unicode="&#x22;" horiz-adv-x="679" d="M205 973v463h76v-463h-76zM408 973v463h75v-463h-75z" />
<glyph unicode="#" d="M63 559h256l46 334h-234l-6 80h252l63 463h88l-67 -463h307l63 463h84l-63 -463h215l12 -80h-239l-43 -334h215l8 -84h-236l-63 -475h-88l67 475h-309l-63 -471h-88l67 471h-235zM403 559h310l43 334h-303z" />
<glyph unicode="$" d="M219 209v72h356v534q-221 86 -225 88q-131 78 -131 230q0 156 90 229.5t271 73.5v137h75v-137h318v-72h-318v-487q229 -59 322 -158q68 -72 67 -178q0 -176 -124 -262q-102 -70 -265 -70v-209h-80v209h-356zM293 1149l4 -8q0 -90 78 -154.5t205 -87.5v465 q-287 0 -287 -215zM655 281q156 0 235 63.5t79 167.5q0 100 -80 177t-234 108v-516z" />
<glyph unicode="%" horiz-adv-x="1820" d="M143 1163q0 125 76 209q84 92 230 92q147 0 231 -94q76 -86 76 -217q0 -123 -68 -207q-76 -94 -209 -94q-160 0 -252 96q-84 88 -84 215zM223 1153q0 -90 65.5 -157.5t176.5 -67.5q96 0 151.5 68.5t55.5 162.5q0 92 -51 156q-57 70 -156 69q-115 0 -178.5 -67.5 t-63.5 -163.5zM369 -25l948 1485h80l-953 -1485h-75zM1004 281q0 127 79 213q88 94 238 94q141 0 221 -92q70 -82 70 -203q0 -127 -74 -217q-82 -100 -211 -101q-152 0 -242 95q-81 86 -81 211zM1087 285q0 -94 66 -164t178 -70q86 0 143.5 77t57.5 171q0 92 -51 147 q-57 61 -168 62q-106 0 -166 -65.5t-60 -157.5z" />
<glyph unicode="&#x26;" horiz-adv-x="1368" d="M55 549q0 137 66 254q74 131 227 229q-68 86 -90 127t-27 80q16 94 64.5 145.5t144.5 51.5h588v-72h-563q-154 0 -154 -104q4 -37 20.5 -73t49.5 -71l747 -844q25 31 48.5 109t23.5 168q0 106 -37 192q-45 104 -143 191l51 51q111 -98 162 -219q43 -102 43 -223 q0 -109 -35 -211q-27 -80 -61 -121l163 -209h-100l-115 152q-100 -90 -218.5 -133.5t-241.5 -43.5q-117 0 -225.5 37t-170.5 88q-88 57 -149 176q-68 130 -68 273zM135 549q0 -131 65.5 -248t176.5 -180q57 -31 131 -50.5t160 -19.5q123 0 219 35q113 41 184 123l-668 768 q-137 -76 -202.5 -186.5t-65.5 -241.5z" />
<glyph unicode="'" horiz-adv-x="456" d="M156 1120l59 316h84l-68 -316h-75z" />
<glyph unicode="(" horiz-adv-x="796" d="M240 500q0 293 115.5 546.5t328.5 413.5l41 -45q-215 -174 -322 -426q-90 -213 -90 -438l2 -47q0 -279 134 -504q100 -170 290 -332l-39 -49q-205 143 -329 375q-131 244 -131 506z" />
<glyph unicode=")" horiz-adv-x="796" d="M59 -336q203 158 318 406q106 229 106 462q0 209 -67 394q-57 156 -158 288q-74 98 -182 195l41 47q193 -147 307 -358q139 -254 139 -561q0 -264 -117 -506q-125 -256 -346 -416z" />
<glyph unicode="*" horiz-adv-x="1024" d="M172 911l285 168l-281 168l33 49l274 -163v303h62v-299l270 159l41 -49l-285 -168l285 -168l-41 -51l-270 164v-324h-62v324l-270 -164z" />
<glyph unicode="+" horiz-adv-x="1228" d="M131 449v79h444v445h84v-445h441v-79h-441v-449h-84v449h-444z" />
<glyph unicode="," horiz-adv-x="567" d="M160 -164l84 311h104l-104 -315z" />
<glyph unicode="-" horiz-adv-x="679" d="M147 449v79h394v-79h-394z" />
<glyph unicode="." horiz-adv-x="567" d="M197 68q4 33 22.5 54t52.5 21q80 0 80 -80q0 -31 -20.5 -53t-55.5 -22t-55 22.5t-24 57.5z" />
<glyph unicode="/" horiz-adv-x="567" d="M4 -25l483 1485h84l-483 -1485h-84z" />
<glyph unicode="0" d="M100 436v568q0 162 105 294q131 166 362 166q223 0 357 -143q121 -131 120 -326v-559q0 -186 -102 -309q-127 -152 -379 -152q-254 0 -375 170q-88 123 -88 291zM193 436q0 -160 79 -258q96 -119 291 -119q184 0 283 93q106 100 106 284v559q0 193 -127 299 q-109 90 -258 90q-143 0 -250 -92q-125 -109 -124 -297v-559z" />
<glyph unicode="1" d="M299 1364l20 72h297v-1436h-75l4 1364h-246z" />
<glyph unicode="2" d="M100 1032q0 219 152 336q121 92 285 92q229 0 360 -139q119 -125 119 -305q0 -131 -64 -219q-86 -141 -280 -303q-51 -41 -320 -240q-152 -111 -151 -145q6 -25 75 -25h756v-84h-839q-43 0 -63.5 25.5t-25.5 66.5q6 59 35 84q100 96 279 234q219 168 266 208 q131 115 188 218q47 98 48 184q0 154 -122 255t-282 101q-147 -18 -235 -114.5t-88 -212.5q0 -172 100 -268.5t270 -96.5l4 -8q-70 -59 -123 -60q-109 23 -194 91q-150 118 -150 325z" />
<glyph unicode="3" d="M121 4v76h475q168 0 246 115q66 96 65 258q-18 166 -100 236.5t-232 70.5h-290v55q82 82 192 189q96 90 193 182q74 70 127 127q12 12 12 22q0 29 -21 29h-657v72h657q109 0 109 -80q0 -57 -53 -105q-219 -207 -436 -411h167q215 0 326 -127q90 -104 90 -256 q0 -223 -123 -346q-111 -111 -276 -111h-17z" />
<glyph unicode="4" d="M43 492q6 41 25 75l548 893h93l-557 -907l-17 -29q-8 -14 -10 -24q6 -20 55 -21h563l5 881l75 96v-977h244v-71h-244v-408h-75v408h-533h-80q-41 0 -64.5 23.5t-27.5 60.5z" />
<glyph unicode="5" d="M135 0v84h414q141 0 244 90q111 96 110 246q0 152 -94 248t-234 96h-391v672h709v-72h-629v-520h344q168 0 275.5 -123t107.5 -301q0 -221 -149 -332q-119 -88 -287 -88h-420z" />
<glyph unicode="6" d="M72 469q0 102 30.5 188t94.5 183l395 596h104l-428 -639q-35 -51 -57.5 -98.5t-34.5 -102.5q-10 -66 -10 -111q0 -209 137 -327q119 -102 277 -103q166 16 281.5 132t115.5 282q0 170 -111 293q-119 131 -303 131q-82 0 -168 -29l62 92q59 12 118 13q205 0 345.5 -142.5 t140.5 -347.5q0 -203 -132 -353.5t-333 -150.5q-129 0 -221 37q-106 43 -199 148q-51 68 -77.5 150.5t-26.5 158.5z" />
<glyph unicode="7" d="M76 1364v72h880q109 0 109 -97q0 -18 -6 -41.5t-10 -37.5l-557 -1260h-97l570 1280q4 14 10 30.5t6 20.5q0 23 -19.5 28t-76.5 5h-809z" />
<glyph unicode="8" d="M92 412l4 8q0 143 96.5 262t227.5 145q-111 43 -165 119t-54 178l4 60q12 94 84 170q100 106 278 106q158 0 263.5 -93t105.5 -243q0 -94 -45 -166q-51 -84 -164 -135q152 -41 240 -164q74 -102 73 -210q0 -256 -176 -383q-125 -90 -280 -91q-190 0 -326 99 q-166 121 -166 338zM184 412q0 -145 97 -248q111 -117 303 -117q178 0 280 113q92 100 92 243q0 154 -100 261q-109 117 -289 116q-176 0 -284 -114q-99 -104 -99 -254zM285 1128q0 -113 73 -192q82 -88 222 -88q127 0 199.5 83t72.5 193q0 111 -68 185q-78 84 -209 84 q-137 0 -213.5 -77t-76.5 -188z" />
<glyph unicode="9" d="M76 999q0 207 166 342q147 119 329 119l58 -4q205 -23 325 -164q115 -133 115 -319v-27q0 -14 -4 -43q0 -55 -43 -161.5t-98 -178.5l-375 -563h-100l323 487q100 141 139 218q66 127 66 243q0 178 -119 305t-299 127q-166 0 -280.5 -129t-114.5 -299q0 -76 29.5 -149.5 t91.5 -138.5q53 -55 139 -87t172 -32q90 0 147 26l-55 -88q-55 -18 -125 -18q-186 0 -325 129q-162 149 -162 405z" />
<glyph unicode=":" horiz-adv-x="567" d="M201 68q0 31 22.5 53t52.5 22q31 0 53.5 -22.5t22.5 -52.5q0 -33 -21.5 -54.5t-54.5 -21.5t-54 21.5t-21 54.5zM201 721q0 29 21.5 52.5t53.5 23.5q31 0 53.5 -22.5t22.5 -53.5q0 -35 -21.5 -56.5t-54.5 -21.5t-54 21.5t-21 56.5z" />
<glyph unicode=";" horiz-adv-x="567" d="M160 -164l84 311h104l-104 -311h-84zM197 717q4 35 22.5 57.5t56.5 22.5q27 0 46 -13q31 -23 30 -63q0 -31 -20.5 -55.5t-55.5 -24.5q-37 0 -56 21.5t-23 54.5z" />
<glyph unicode="&#x3c;" horiz-adv-x="1228" d="M131 436v105l969 446v-90l-885 -410l885 -411v-88z" />
<glyph unicode="=" horiz-adv-x="1228" d="M131 256v84h969v-84h-969zM131 637v80h969v-80h-969z" />
<glyph unicode="&#x3e;" horiz-adv-x="1228" d="M131 -12v88l885 411l-885 410v90l969 -446v-105z" />
<glyph unicode="?" horiz-adv-x="907" d="M47 1057q0 176 120 289.5t286 113.5q172 0 293.5 -117.5t121.5 -306.5q0 -117 -48 -204t-140 -140q-53 -33 -107.5 -46t-111.5 -13v-369h-76v445q123 0 217 39.5t137 111.5q45 86 45 193q0 139 -94 233t-233 94q-129 0 -219 -71q-109 -86 -109 -252h-82zM340 63 q8 74 80 80q37 0 58.5 -21.5t21.5 -53.5q0 -31 -20.5 -55.5t-55.5 -24.5q-33 0 -56.5 22t-27.5 53z" />
<glyph unicode="A" horiz-adv-x="1251" d="M131 0v977q0 201 113 332q131 152 381 151q233 0 368 -143q127 -135 127 -344v-973h-88v700h-733v76h733v232q0 166 -107.5 269t-299.5 103q-180 0 -295 -99t-115 -282v-999h-84z" />
<glyph unicode="B" d="M131 0v1016q0 180 90 295q117 150 359 149q160 0 272 -82q129 -94 129 -254t-57 -239q-47 -66 -148 -109q145 -43 219 -158q61 -96 62 -219q0 -172 -90 -274q-111 -125 -338 -125h-330v76h272q176 0 277 59q133 78 133 260q0 131 -70 215q-98 117 -315 117l-43 -2h-254 v72h250q147 0 235 61q119 82 119 266q0 100 -61 170q-82 94 -246 95q-184 0 -287 -101q-94 -92 -94 -231v-1057h-84z" />
<glyph unicode="C" horiz-adv-x="1024" d="M80 743q0 264 137 437q109 137 293 204q139 51 278 52h189v-72h-176q-301 0 -477 -193q-160 -174 -160 -432q0 -281 143 -456q170 -207 498 -207h168v-76h-172q-293 0 -494 182q-227 205 -227 561z" />
<glyph unicode="D" horiz-adv-x="1251" d="M131 0v1436h305q336 0 541 -211q190 -197 190 -486q0 -334 -202 -542q-190 -197 -461 -197h-215v80h186q303 0 465 203q139 174 139 430q0 233 -127 405q-174 238 -532 238h-205v-1356h-84z" />
<glyph unicode="E" horiz-adv-x="1024" d="M55 760q0 137 68 278q84 174 237 275q188 123 463 123h105v-72h-113q-311 0 -504 -190q-172 -170 -172 -398h789v-71h-789q0 -289 207 -467q186 -162 442 -162h140v-76h-160q-264 0 -461 162q-252 207 -252 598z" />
<glyph unicode="F" horiz-adv-x="907" d="M131 0v981q0 201 100.5 328t268.5 127h311v-72h-274q-111 0 -189 -57q-129 -96 -129 -326v-225h592v-76h-592v-680h-88z" />
<glyph unicode="G" horiz-adv-x="1591" d="M68 717q0 53 9 105t27 122q74 231 261 371q195 145 444 145q150 0 304.5 -63.5t242.5 -171.5l-60 -62q-86 109 -221 165t-278 56q-268 0 -454.5 -198.5t-186.5 -468.5q0 -74 20.5 -156t54.5 -158q84 -166 242 -262q150 -90 320 -90q248 0 426 160q201 180 200 477h-618 v76h706l2 -43q0 -295 -184 -510q-203 -236 -524 -236q-307 0 -520 217.5t-213 524.5z" />
<glyph unicode="H" horiz-adv-x="1251" d="M143 0v1436h88v-648h793v648h88v-1436h-88v717h-793v-717h-88z" />
<glyph unicode="I" horiz-adv-x="456" d="M184 0v1436h88v-1436h-88z" />
<glyph unicode="J" horiz-adv-x="679" d="M-33 0v80h172q135 0 224.5 87t89.5 220v1049h88v-1045q0 -160 -100.5 -266.5t-280.5 -124.5h-193z" />
<glyph unicode="K" d="M131 0v1436h88v-648h252q131 0 213 72q66 59 142.5 227t156.5 349h96q-76 -170 -148.5 -331t-119.5 -224q-61 -82 -139 -105q186 -16 289 -145q92 -115 92 -275v-356h-88v332q0 152 -72 248q-102 137 -344 137h-33h-297v-717h-88z" />
<glyph unicode="L" horiz-adv-x="796" d="M131 403v1033h84v-1000q0 -168 86 -264t219 -96h281v-76h-318q-147 12 -245 117q-107 112 -107 286z" />
<glyph unicode="M" horiz-adv-x="1703" d="M59 0l177 1317q10 68 22 90q27 53 90 53q43 0 66.5 -20.5t38.5 -59.5q125 -395 231 -766q57 -209 117 -415q37 -125 51 -127q10 2 18.5 20.5t14.5 42.5l354 1200q31 78 37 88q27 37 88 37q41 0 66.5 -25.5t37.5 -95.5l185 -1339h-88l-181 1335q0 16 -8 30.5t-20 14.5 t-21.5 -14t-17.5 -49l-365 -1249q-10 -37 -31.5 -60.5t-56.5 -23.5t-49 4q-37 10 -51 53l-383 1307q-12 33 -29 32q-10 0 -19 -20.5t-14 -46.5l-176 -1313h-84z" />
<glyph unicode="N" horiz-adv-x="1251" d="M139 0v1343q0 98 92 117q59 0 97 -26q27 -18 41 -50l592 -1267q16 -49 47 -58q20 6 20 58v1343h88v-1372q0 -66 -25.5 -89.5t-70.5 -23.5q-96 0 -135 93l-586 1255q-18 57 -55 57q-16 0 -17 -37v-1343h-88z" />
<glyph unicode="O" horiz-adv-x="1591" d="M68 713q0 279 184 497q211 250 545 250q315 0 528 -231q203 -221 203 -512t-197 -508q-211 -233 -534 -234q-332 0 -543 246q-186 218 -186 492zM156 713q0 -256 170 -451q184 -211 471 -211q303 0 483 223q156 193 156 443t-160 442q-182 221 -479 221q-291 0 -475 -217 q-166 -194 -166 -450z" />
<glyph unicode="P" horiz-adv-x="1024" d="M123 999q0 244 147 365q119 96 293 96q195 0 311 -108q129 -121 130 -344q0 -201 -118 -314.5t-315 -113.5h-282v75h278q147 0 244 95q104 102 104 266q0 78 -24 149q-76 219 -324 219q-199 0 -288 -127q-68 -96 -68 -249l2 -52v-956h-88v956z" />
<glyph unicode="Q" horiz-adv-x="1591" d="M66 705q0 330 221 546q213 209 506 209q248 0 432 -137q147 -111 231 -283q68 -139 68 -239l2 -74q0 -336 -226 -555q-199 -193 -432 -192v-291h-80v706h80v-336q221 25 383 195q182 193 183 471l-2 63q0 195 -158 377q-190 219 -481 219q-287 0 -469 -208 q-170 -195 -170 -469l2 -43q27 -287 239 -463q166 -137 301 -138v-83q-106 14 -211 65q-158 76 -258 205q-131 166 -159 409z" />
<glyph unicode="R" d="M131 0v983q0 186 86 313q111 164 328 164q238 0 358 -135q92 -104 92 -238q0 -123 -59 -219q-66 -106 -180 -141q133 -20 207 -123q61 -86 61 -196v-408h-88v420q0 123 -97.5 191.5t-283.5 68.5h-256v76h250q176 0 270 96q84 86 84 219t-84 217q-96 96 -270 96 q-135 0 -221 -77q-113 -102 -113 -330v-977h-84z" />
<glyph unicode="S" d="M88 0v80h428l53 -2q205 0 310 82q82 66 82 159q0 150 -93 236q-72 68 -229 119l-283 86q-94 35 -155 90q-92 82 -109 199l-4 59q0 135 76 217q106 113 342 113l57 -2h406v-76h-406q-233 0 -323 -84q-63 -59 -64 -172q4 -8 4 -25q0 -160 244 -248q168 -51 240 -71 q211 -68 294 -150q92 -90 93 -252l-2 -47q-18 -150 -119 -223q-119 -88 -365 -88h-49h-428z" />
<glyph unicode="T" horiz-adv-x="907" d="M4 1360v76h903v-76h-407v-1360h-88v1360h-408z" />
<glyph unicode="U" horiz-adv-x="1251" d="M131 504v932h84v-971q0 -197 104 -301q113 -113 314 -113q174 0 286.5 110.5t112.5 303.5v971h88v-932q0 -215 -94 -350q-123 -178 -383 -179q-240 0 -371 127q-141 136 -141 402z" />
<glyph unicode="V" horiz-adv-x="1024" d="M-37 1436h84l414 -1336q16 -51 35 -57q12 2 23 17.5t18 39.5l444 1336h84l-457 -1385q-31 -76 -112 -76q-37 0 -69 25t-42 68z" />
<glyph unicode="W" horiz-adv-x="1931" d="M131 369v1067h84v-1067q0 -154 113 -240q96 -74 231 -74q150 0 252 105q113 115 113 301v10v965h88v-975q0 -209 129 -318q104 -88 243 -88q131 0 224 76q113 94 112 268v1037h84v-1049q0 -205 -147 -317q-123 -94 -277 -95q-131 0 -223 52q-111 61 -188 209 q-72 -129 -171.5 -195t-238.5 -66q-182 0 -305 109t-123 285z" />
<glyph unicode="X" horiz-adv-x="1251" d="M37 0v88q197 0 362 170q184 188 185 459q0 274 -176 465q-164 178 -371 178v84q238 0 405 -170q139 -139 187 -330q53 203 186 336q164 164 406 164v-84q-223 0 -388 -190.5t-165 -456.5q0 -268 186 -455q170 -170 367 -170v-88q-252 0 -416 176q-115 123 -180 324 q-41 -180 -168 -318q-168 -182 -420 -182z" />
<glyph unicode="Y" d="M131 1032v404h88v-404q0 -168 115 -266q100 -86 233 -86q164 0 260.5 100.5t96.5 251.5v404h88v-396q0 -211 -138 -335q-115 -104 -258 -105v-600h-88v600q-172 0 -284.5 129t-112.5 303z" />
<glyph unicode="Z" horiz-adv-x="1024" d="M33 96q6 51 35 97l755 1067q12 16 22.5 36.5t10.5 34.5q0 29 -33 29h-702v76h659q96 0 134 -25t38 -72q0 -29 -7 -47t-25 -49l-764 -1079q-8 -14 -13 -23q-10 -18 -12 -32q10 -29 49 -29h785v-80h-840q-41 0 -66.5 27.5t-25.5 68.5z" />
<glyph unicode="[" horiz-adv-x="567" d="M188 -381v1817h277v-76h-201v-1659h201v-82h-277z" />
<glyph unicode="\" horiz-adv-x="567" d="M-135 1460h84l760 -1485h-84z" />
<glyph unicode="]" horiz-adv-x="567" d="M109 -303h198v1659h-198v80h276v-1817h-276v78z" />
<glyph unicode="^" horiz-adv-x="1228" d="M125 563l442 873h97l440 -873h-96l-392 785l-397 -785h-94z" />
<glyph unicode="_" horiz-adv-x="1024" d="M0 -152h1024v-104h-1024v104z" />
<glyph unicode="`" horiz-adv-x="456" d="M-4 1380h104l244 -284h-76z" />
<glyph unicode="a" d="M70 500l2 45q23 223 180 346q127 100 276 100q248 0 381 -174q106 -139 107 -321v-496h-80v500q0 205 -137 321q-115 98 -267 99q-178 0 -290 -156q-86 -119 -86 -223l-2 -45q0 -186 104 -308q96 -113 250 -133q104 0 191 37t149 105v-97q-68 -55 -143.5 -85.5 t-159.5 -30.5q-215 0 -345 150.5t-130 365.5z" />
<glyph unicode="b" d="M125 487v949h80v-949q0 -188 123 -315q113 -117 264 -117q135 0 252 107q127 117 143 287l2 43q0 164 -108 292q-115 135 -277 136q-94 0 -172 -38t-135 -106v92q72 63 148.5 93t183.5 30q182 0 313 -147.5t131 -354.5l-2 -40q0 -213 -125 -334q-139 -135 -358 -135 q-211 0 -342 159q-121 147 -121 348z" />
<glyph unicode="c" horiz-adv-x="796" d="M80 492q0 260 172 393q143 111 364 110h52q25 0 53 -4v-80l-103 7q-231 0 -352 -130q-106 -115 -106 -296q0 -190 110 -297q119 -115 353 -115h34h31q23 4 33 4v-84l-92 -4q-215 0 -355 90q-194 125 -194 406z" />
<glyph unicode="d" d="M72 475q0 211 142 363.5t335 152.5q84 0 156.5 -27.5t142.5 -91.5v-100q-63 74 -138 108.5t-155 34.5q-160 0 -281.5 -134t-121.5 -316q0 -154 116.5 -282t276.5 -128q145 0 256 92q139 117 139 332v957h80v-940q0 -242 -139.5 -379t-343.5 -137q-209 0 -344 163 q-121 146 -121 332z" />
<glyph unicode="e" d="M76 487q0 205 145.5 354.5t353.5 149.5q141 0 263.5 -67.5t177.5 -167.5l-697 -471l-47 63l625 424q-53 70 -135 106.5t-182 36.5q-143 0 -252 -84q-123 -94 -160 -268l-8 -80q0 -137 73 -245q86 -127 250 -175l92 -12q188 0 312.5 120t124.5 298h80q0 -223 -156 -360 q-143 -125 -344 -125q-217 0 -366.5 145t-149.5 358z" />
<glyph unicode="f" horiz-adv-x="567" d="M125 0v1137q0 131 92 215t254 84h133v-72h-160q-115 0 -177 -72.5t-62 -199.5v-119h399v-74h-399v-899h-80z" />
<glyph unicode="g" d="M72 516q23 238 164 367q127 117 305 116q195 0 329 -133q145 -143 146 -383v-475q0 -242 -150 -364q-131 -109 -346 -109q-145 0 -272 49l24 72q119 -47 256 -47q178 0 285 92q127 111 127 340v446q0 193 -125 314q-115 111 -274 110q-156 0 -265 -100 q-125 -115 -124 -315q0 -174 113.5 -307.5t271.5 -133.5q164 0 311 154v-105q-68 -61 -145.5 -90.5t-165.5 -29.5q-190 0 -324 141q-141 151 -141 391z" />
<glyph unicode="h" horiz-adv-x="1024" d="M125 0v1436h80v-600q45 72 131 113.5t184 41.5q156 0 260 -90q123 -104 123 -293v-608h-76v575q0 166 -94 259q-84 82 -213 81q-125 0 -215 -75q-100 -84 -100 -224v-616h-80z" />
<glyph unicode="i" horiz-adv-x="456" d="M168 1243q0 29 18.5 47.5t40.5 18.5q31 0 48.5 -15.5t17.5 -50.5q0 -25 -19.5 -40t-46.5 -19q-20 4 -39.5 20t-19.5 39zM193 0v973h75v-973h-75z" />
<glyph unicode="j" horiz-adv-x="456" d="M-104 -391q143 0 217.5 63.5t74.5 167.5v1133h80v-1145q0 -141 -112 -221q-102 -72 -260 -72v74zM164 1243q8 66 63 66q61 0 62 -66q0 -20 -17.5 -39.5t-44.5 -19.5q-29 0 -44 17t-19 42z" />
<glyph unicode="k" horiz-adv-x="907" d="M125 0v1436h80v-869h164q92 0 204 162q96 147 162 244h101q-23 -31 -181 -275q-63 -96 -123 -135q125 -2 197 -86t72 -225v-252h-76v256q0 98 -66.5 167t-166.5 69h-287v-492h-80z" />
<glyph unicode="l" horiz-adv-x="456" d="M188 0v1436h80v-1436h-80z" />
<glyph unicode="m" horiz-adv-x="1480" d="M121 0v676q0 154 106 239q92 76 226 76q100 0 181 -49t105 -137q27 90 107 140t182 50q133 0 225 -80q106 -92 107 -251v-664h-76v668q0 119 -75.5 183t-176.5 64q-100 0 -172 -63q-80 -72 -80 -188v-664h-75v655q0 121 -76 193t-180 72q-102 0 -173 -64 q-80 -72 -79 -201v-655h-76z" />
<glyph unicode="n" horiz-adv-x="1024" d="M125 0v604q0 129 74 238q102 150 301 149q170 0 282 -102q121 -111 121 -293v-596h-80v584q0 121 -67 215q-86 121 -244 121q-127 0 -217 -94.5t-90 -225.5v-600h-80z" />
<glyph unicode="o" d="M76 487q0 180 119 328q143 176 376 176q217 0 359 -157q131 -145 131 -347q0 -186 -119 -333q-141 -174 -371 -174q-227 0 -368 165q-127 149 -127 342zM160 487q0 -164 102 -290q119 -145 309 -146q193 0 310 152q100 129 100 284q0 168 -111 295q-121 137 -299 138 q-180 0 -295.5 -129.5t-115.5 -303.5z" />
<glyph unicode="p" d="M125 -471v1008q0 160 111 292q133 162 352 162t356 -155q127 -143 127 -340q0 -213 -136 -362.5t-339 -149.5q-86 0 -161 30.5t-138 89.5v93q53 -63 133 -102.5t186 -39.5q158 16 264.5 140t106.5 313q0 145 -98 266q-119 145 -309 146q-162 0 -273 -123 q-102 -115 -102 -260v-1008h-80z" />
<glyph unicode="q" d="M70 487q0 201 121.5 352.5t312.5 151.5q260 0 403 -178q113 -139 113 -305v-12v-957h-80v953q0 180 -115 301q-121 127 -309 127q-168 -14 -270 -160q-94 -133 -94 -307q0 -160 116.5 -279t255.5 -119q104 0 178 35t146 107v-93q-143 -125 -328 -124q-154 0 -282 116 q-145 133 -166 348z" />
<glyph unicode="r" horiz-adv-x="567" d="M125 0v973h80v-189q100 188 315 189h64v-76l-56 4q-137 0 -230 -101.5t-93 -271.5v-528h-80z" />
<glyph unicode="s" horiz-adv-x="907" d="M76 743q0 100 69.5 165t173.5 65h445v-74h-432q-86 0 -127 -46t-41 -114q0 -111 174 -161q160 -43 321 -86q176 -70 177 -224q0 -147 -91 -215q-72 -53 -192 -53h-12h-461v76h457q106 0 160.5 46t54.5 122q0 131 -191 190q-170 47 -338 94q-147 65 -147 215z" />
<glyph unicode="t" horiz-adv-x="567" d="M125 285v954h80v-266h344v-74h-344v-647q10 -104 76 -148q51 -33 143 -32q18 0 45 2t51 2h29v-76h-158q-117 0 -188 70q-78 76 -78 215z" />
<glyph unicode="u" horiz-adv-x="1024" d="M125 356v617h80v-604q0 -139 100 -230q92 -84 215 -84q121 0 207 78q96 86 96 232v608h80v-608q0 -178 -123 -285q-111 -96 -268 -96q-158 0 -266 92q-121 102 -121 280z" />
<glyph unicode="v" horiz-adv-x="907" d="M-4 973h88l348 -877q12 -31 25 -37q14 4 26 37l344 877h93l-367 -930q-18 -63 -96 -63q-72 0 -92 53z" />
<glyph unicode="w" horiz-adv-x="1480" d="M121 303v670h76v-666q0 -119 79 -190q74 -66 173 -66q100 0 172 66q80 72 79 190v666h80v-674q0 -115 78 -184q72 -63 170 -64q102 0 179 71t77 193v658h76v-658q0 -141 -88 -238t-236 -97q-123 0 -191.5 49t-101.5 143q-70 -193 -294 -192q-133 0 -224 77 q-104 90 -104 246z" />
<glyph unicode="x" horiz-adv-x="907" d="M37 899v74q135 0 248.5 -75t171.5 -210q59 131 164 205q113 80 256 80v-74q-166 0 -277 -135q-100 -123 -100 -277q0 -162 100 -282q109 -129 277 -129v-80q-150 14 -244 74q-109 70 -176 215q-66 -139 -166.5 -208t-249.5 -81v84q154 0 264.5 121t110.5 274 q0 160 -99 285q-108 139 -280 139z" />
<glyph unicode="y" horiz-adv-x="1024" d="M125 348v625h76v-588q0 -150 98 -244q90 -86 209 -86q123 0 215 84q100 92 100 234v600h80v-600q0 -172 -104 -279q-96 -98 -244 -110v-424h-84v424q-141 14 -235 100q-111 102 -111 264z" />
<glyph unicode="z" horiz-adv-x="796" d="M43 76q4 33 21.5 70.5t52.5 76.5l512 621q8 16 8 24q0 29 -29 29h-520v76h559q45 0 64.5 -23.5t19.5 -60.5q0 -27 -7 -48.5t-24 -43.5l-507 -613q-25 -27 -42.5 -49t-19.5 -39q6 -16 45 -16h580v-80h-627q-29 0 -57.5 20.5t-28.5 55.5z" />
<glyph unicode="{" horiz-adv-x="567" d="M135 500v75q59 0 86 92.5t27 225.5v324q0 139 32.5 191t104.5 52h80v-76h-78q-33 0 -48 -39.5t-15 -164.5v-320q0 -139 -45 -235q-25 -55 -60 -84q45 -45 75 -132t30 -190v-319q0 -119 15 -159t48 -40h78v-82h-80q-72 0 -104.5 52.5t-32.5 197.5v319q0 135 -23 213 q-29 99 -90 99z" />
<glyph unicode="|" horiz-adv-x="456" d="M188 0v1436h80v-1436h-80z" />
<glyph unicode="}" horiz-adv-x="567" d="M109 -311h79q33 0 46.5 39t13.5 163v322q0 139 45 233q29 57 63 86q-45 37 -76.5 127.5t-31.5 192.5v319q0 121 -13.5 163t-46.5 42h-79v76h79q72 0 104 -51t32 -197v-315q0 -141 25.5 -229.5t86.5 -88.5v-75q-59 0 -85.5 -90.5t-26.5 -225.5v-323q0 -139 -33 -191.5 t-103 -52.5h-79v76z" />
<glyph unicode="~" horiz-adv-x="1228" d="M129 420q57 92 123.5 132t134.5 40q84 0 231.5 -67.5t229.5 -67.5q59 0 106 37q37 29 90 106l56 -45q-43 -82 -110.5 -130t-153.5 -48q-66 0 -277 94q-100 45 -172 45q-59 0 -109.5 -32.5t-93.5 -110.5z" />
<glyph unicode="&#xa2;" horiz-adv-x="481" d="M-18 1286h69q0 -66 46 -118t128 -52t127 54.5t45 117.5h66q0 -88 -57 -158q-68 -82 -181 -81q-115 0 -179 71.5t-64 165.5z" />
<glyph unicode="&#xa3;" horiz-adv-x="796" d="M0 481v88l131 74v793h84v-744l360 205v-88l-360 -205v-168q0 -168 86 -264t219 -96h281v-76h-318q-147 12 -245 117q-106 113 -107 286v152z" />
<glyph unicode="&#xa5;" horiz-adv-x="1251" d="M131 0v977q0 201 113 332q131 152 381 151q233 0 368 -143q127 -135 127 -344l2 -973h-24l-99 -100q-37 -41 -48 -70t-11 -66q0 -47 37 -69.5t70 -22.5q39 0 65.5 2t54.5 13l-12 -62q-18 -6 -44 -10t-75 -4q-82 0 -143 53q-47 41 -47 105q0 57 17.5 85.5t74.5 75.5l94 76 v694h-733v76h733v232q0 166 -107.5 269t-299.5 103q-180 0 -295 -99t-115 -282v-999h-84z" />
<glyph unicode="&#xa8;" horiz-adv-x="456" d="M-4 1180q0 25 18.5 46t48.5 21q31 0 51.5 -18.5t20.5 -44.5q0 -33 -16.5 -54.5t-55.5 -21.5q-27 0 -47 20.5t-20 51.5zM319 1180q4 27 22.5 47t49.5 20q29 0 49.5 -20.5t20.5 -42.5q0 -31 -18.5 -53.5t-51.5 -22.5q-31 0 -51.5 21.5t-20.5 50.5z" />
<glyph unicode="&#xa9;" horiz-adv-x="1640" d="M92 735q0 291 193 500q207 225 530 225q336 0 547 -239q190 -215 190 -500q0 -307 -215 -526.5t-522 -219.5t-520 238q-203 227 -203 522zM184 739q0 -268 154 -463q174 -221 471 -221q281 0 471 207q180 197 180 455t-174 454q-188 213 -463 213q-276 0 -465 -206 q-174 -191 -174 -439zM416 709q0 188 107.5 321t285.5 133q145 0 250.5 -71.5t136.5 -210.5h-84q-35 109 -109.5 157.5t-191.5 48.5q-137 0 -220 -108.5t-83 -278.5q0 -147 100.5 -249.5t227.5 -102.5q92 0 157 41q88 55 119 178h84q-47 -156 -149 -229q-86 -61 -203 -62 q-172 0 -289 99q-139 119 -139 334z" />
<glyph unicode="&#xab;" horiz-adv-x="796" d="M100 487l244 322h96l-243 -322l243 -319h-96zM348 487l248 322h100l-247 -322l243 -319h-96z" />
<glyph unicode="&#xad;" horiz-adv-x="679" d="M147 449v79h394v-79h-394z" />
<glyph unicode="&#xae;" horiz-adv-x="1640" d="M92 748q0 322 246 530q215 182 471 182q365 0 573 -270q166 -215 166 -465q0 -338 -227 -551q-211 -199 -502 -199q-303 0 -512 213q-215 220 -215 560zM180 748q0 -297 183.5 -497t459.5 -200q250 0 443.5 197.5t193.5 478.5q0 272 -184 464.5t-461 192.5 q-260 0 -447.5 -187t-187.5 -449zM541 276v869h319q162 0 227 -70q53 -57 54 -168q0 -86 -43 -137q-51 -61 -174 -82l264 -412h-113l-248 412h-206v-412h-80zM621 760h223q131 0 178 53q31 35 31 107q0 74 -48.5 110.5t-140.5 36.5h-243v-307z" />
<glyph unicode="&#xb4;" horiz-adv-x="456" d="M113 1049l243 280h105l-273 -280h-75z" />
<glyph unicode="&#xb8;" horiz-adv-x="456" d="M8 -352l25 53q72 -37 147 -37q55 0 94 23q49 29 50 77q0 33 -25 60q-31 33 -84 33q-33 -6 -50.5 -10.5t-47.5 -18.5l-33 25l117 155h67l-100 -117l8 -4q12 6 30.5 12.5t37.5 8.5q63 0 111 -40t48 -99q0 -82 -71 -123q-57 -33 -148 -33q-96 0 -176 35z" />
<glyph unicode="&#xbb;" horiz-adv-x="796" d="M109 168l243 319l-243 318h96l248 -318l-248 -319h-96zM360 168l248 319l-248 318h97l248 -318l-248 -319h-97z" />
<glyph unicode="&#xc1;" horiz-adv-x="1251" d="M131 0v977q0 201 113 332q131 152 381 151q233 0 368 -143q127 -135 127 -344v-973h-88v700h-733v76h733v232q0 166 -107.5 269t-299.5 103q-180 0 -295 -99t-115 -282v-999h-84zM549 1516l244 280h104l-272 -280h-76z" />
<glyph unicode="&#xc9;" horiz-adv-x="1024" d="M55 760q0 137 68 278q84 174 237 275q188 123 463 123h105v-72h-113q-311 0 -504 -190q-172 -170 -172 -398h789v-71h-789q0 -289 207 -467q186 -162 442 -162h140v-76h-160q-264 0 -461 162q-252 207 -252 598zM586 1516l243 280h105l-272 -280h-76z" />
<glyph unicode="&#xcd;" horiz-adv-x="456" d="M184 0v1436h88v-1436h-88zM193 1516l243 280h105l-273 -280h-75z" />
<glyph unicode="&#xd3;" horiz-adv-x="1591" d="M68 713q0 279 184 497q211 250 545 250q315 0 528 -231q203 -221 203 -512t-197 -508q-211 -233 -534 -234q-332 0 -543 246q-186 218 -186 492zM156 713q0 -256 170 -451q184 -211 471 -211q303 0 483 223q156 193 156 443t-160 442q-182 221 -479 221q-291 0 -475 -217 q-166 -194 -166 -450zM727 1516l244 280h104l-272 -280h-76z" />
<glyph unicode="&#xda;" horiz-adv-x="1251" d="M131 504v932h84v-971q0 -197 104 -301q113 -113 314 -113q174 0 286.5 110.5t112.5 303.5v971h88v-932q0 -215 -94 -350q-123 -178 -383 -179q-240 0 -371 127q-141 136 -141 402zM561 1516l244 280h104l-272 -280h-76z" />
<glyph unicode="&#xdd;" d="M131 1032v404h88v-404q0 -168 115 -266q100 -86 233 -86q164 0 260.5 100.5t96.5 251.5v404h88v-396q0 -211 -138 -335q-115 -104 -258 -105v-600h-88v600q-172 0 -284.5 129t-112.5 303zM512 1516l244 280h104l-272 -280h-76z" />
<glyph unicode="&#xe1;" d="M70 500l2 45q23 223 180 346q127 100 276 100q248 0 381 -174q106 -139 107 -321v-496h-80v500q0 205 -137 321q-115 98 -267 99q-178 0 -290 -156q-86 -119 -86 -223l-2 -45q0 -186 104 -308q96 -113 250 -133q104 0 191 37t149 105v-97q-68 -55 -143.5 -85.5 t-159.5 -30.5q-215 0 -345 150.5t-130 365.5zM438 1049l244 280h104l-272 -280h-76z" />
<glyph unicode="&#xe9;" d="M76 487q0 205 145.5 354.5t353.5 149.5q141 0 263.5 -67.5t177.5 -167.5l-697 -471l-47 63l625 424q-53 70 -135 106.5t-182 36.5q-143 0 -252 -84q-123 -94 -160 -268l-8 -80q0 -137 73 -245q86 -127 250 -175l92 -12q188 0 312.5 120t124.5 298h80q0 -223 -156 -360 q-143 -125 -344 -125q-217 0 -366.5 145t-149.5 358zM451 1049l243 280h105l-273 -280h-75z" />
<glyph unicode="&#xed;" horiz-adv-x="456" d="M186 1049l244 280h105l-273 -280h-76zM193 0v973h75v-973h-75z" />
<glyph unicode="&#xf3;" d="M76 487q0 180 119 328q143 176 376 176q217 0 359 -157q131 -145 131 -347q0 -186 -119 -333q-141 -174 -371 -174q-227 0 -368 165q-127 149 -127 342zM160 487q0 -164 102 -290q119 -145 309 -146q193 0 310 152q100 129 100 284q0 168 -111 295q-121 137 -299 138 q-180 0 -295.5 -129.5t-115.5 -303.5zM475 1049l244 280h104l-272 -280h-76z" />
<glyph unicode="&#xfa;" horiz-adv-x="1024" d="M125 356v617h80v-604q0 -139 100 -230q92 -84 215 -84q121 0 207 78q96 86 96 232v608h80v-608q0 -178 -123 -285q-111 -96 -268 -96q-158 0 -266 92q-121 102 -121 280zM444 1049l244 280h105l-273 -280h-76z" />
<glyph unicode="&#xfd;" horiz-adv-x="1024" d="M125 348v625h76v-588q0 -150 98 -244q90 -86 209 -86q123 0 215 84q100 92 100 234v600h80v-600q0 -172 -104 -279q-96 -98 -244 -110v-424h-84v424q-141 14 -235 100q-111 102 -111 264zM463 1049l244 280h104l-272 -280h-76z" />
<glyph unicode="&#x10c;" horiz-adv-x="1024" d="M80 743q0 264 137 437q109 137 293 204q139 51 278 52h189v-72h-176q-301 0 -477 -193q-160 -174 -160 -432q0 -281 143 -456q170 -207 498 -207h168v-76h-172q-293 0 -494 182q-227 205 -227 561zM444 1800h80l191 -231l196 231h84l-223 -284h-108z" />
<glyph unicode="&#x10d;" horiz-adv-x="796" d="M80 492q0 260 172 393q143 111 364 110h52q25 0 53 -4v-80l-103 7q-231 0 -352 -130q-106 -115 -106 -296q0 -190 110 -297q119 -115 353 -115h34h31q23 4 33 4v-84l-92 -4q-215 0 -355 90q-194 125 -194 406zM236 1333h79l191 -231l196 231h84l-223 -284h-108z" />
<glyph unicode="&#x10e;" horiz-adv-x="1251" d="M131 0v1436h305q336 0 541 -211q190 -197 190 -486q0 -334 -202 -542q-190 -197 -461 -197h-215v80h186q303 0 465 203q139 174 139 430q0 233 -127 405q-174 238 -532 238h-205v-1356h-84zM236 1800h79l191 -231l196 231h84l-223 -284h-108z" />
<glyph unicode="&#x10f;" horiz-adv-x="1161" d="M72 475q0 211 142 363.5t335 152.5q84 0 156.5 -27.5t142.5 -91.5v-100q-63 74 -138 108.5t-155 34.5q-160 0 -281.5 -134t-121.5 -316q0 -154 116.5 -282t276.5 -128q145 0 256 92q139 117 139 332v957h80v-940q0 -242 -139.5 -379t-343.5 -137q-209 0 -344 163 q-121 146 -121 332zM1110 1120l23 316h79l-30 -316h-72z" />
<glyph unicode="&#x11a;" horiz-adv-x="1024" d="M55 760q0 137 68 278q84 174 237 275q188 123 463 123h105v-72h-113q-311 0 -504 -190q-172 -170 -172 -398h789v-71h-789q0 -289 207 -467q186 -162 442 -162h140v-76h-160q-264 0 -461 162q-252 207 -252 598zM444 1800h80l191 -231l196 231h84l-223 -284h-108z" />
<glyph unicode="&#x11b;" d="M76 487q0 205 145.5 354.5t353.5 149.5q141 0 263.5 -67.5t177.5 -167.5l-697 -471l-47 63l625 424q-53 70 -135 106.5t-182 36.5q-143 0 -252 -84q-123 -94 -160 -268l-8 -80q0 -137 73 -245q86 -127 250 -175l92 -12q188 0 312.5 120t124.5 298h80q0 -223 -156 -360 q-143 -125 -344 -125q-217 0 -366.5 145t-149.5 358zM297 1335h80l190 -231l197 231h84l-223 -284h-109z" />
<glyph unicode="&#x147;" horiz-adv-x="1251" d="M139 0v1343q0 98 92 117q59 0 97 -26q27 -18 41 -50l592 -1267q16 -49 47 -58q20 6 20 58v1343h88v-1372q0 -66 -25.5 -89.5t-70.5 -23.5q-96 0 -135 93l-586 1255q-18 57 -55 57q-16 0 -17 -37v-1343h-88zM408 1800h79l191 -231l196 231h84l-223 -284h-108z" />
<glyph unicode="&#x148;" horiz-adv-x="1024" d="M125 0v604q0 129 74 238q102 150 301 149q170 0 282 -102q121 -111 121 -293v-596h-80v584q0 121 -67 215q-86 121 -244 121q-127 0 -217 -94.5t-90 -225.5v-600h-80zM248 1333h80l190 -231l197 231h84l-224 -284h-108z" />
<glyph unicode="&#x158;" d="M131 0v983q0 186 86 313q111 164 328 164q238 0 358 -135q92 -104 92 -238q0 -123 -59 -219q-66 -106 -180 -141q133 -20 207 -123q61 -86 61 -196v-408h-88v420q0 123 -97.5 191.5t-283.5 68.5h-256v76h250q176 0 270 96q84 86 84 219t-84 217q-96 96 -270 96 q-135 0 -221 -77q-113 -102 -113 -330v-977h-84zM297 1800h80l190 -231l197 231h84l-223 -284h-109z" />
<glyph unicode="&#x159;" horiz-adv-x="567" d="M72 1335h80l190 -231l197 231h84l-224 -284h-108zM125 0v973h80v-189q100 188 315 189h64v-76l-56 4q-137 0 -230 -101.5t-93 -271.5v-528h-80z" />
<glyph unicode="&#x160;" d="M88 0v80h428l53 -2q205 0 310 82q82 66 82 159q0 150 -93 236q-72 68 -229 119l-283 86q-94 35 -155 90q-92 82 -109 199l-4 59q0 135 76 217q106 113 342 113l57 -2h406v-76h-406q-233 0 -323 -84q-63 -59 -64 -172q4 -8 4 -25q0 -160 244 -248q168 -51 240 -71 q211 -68 294 -150q92 -90 93 -252l-2 -47q-18 -150 -119 -223q-119 -88 -365 -88h-49h-428zM297 1800h80l190 -231l197 231h84l-223 -284h-109z" />
<glyph unicode="&#x161;" horiz-adv-x="907" d="M76 743q0 100 69.5 165t173.5 65h445v-74h-432q-86 0 -127 -46t-41 -114q0 -111 174 -161q160 -43 321 -86q176 -70 177 -224q0 -147 -91 -215q-72 -53 -192 -53h-12h-461v76h457q106 0 160.5 46t54.5 122q0 131 -191 190q-170 47 -338 94q-147 65 -147 215zM186 1333h80 l191 -231l196 231h84l-223 -284h-108z" />
<glyph unicode="&#x164;" horiz-adv-x="907" d="M4 1360v76h903v-76h-407v-1360h-88v1360h-408zM186 1800h80l191 -231l196 231h84l-223 -284h-108z" />
<glyph unicode="&#x165;" horiz-adv-x="567" d="M125 285v954h80v-266h344v-74h-344v-647q10 -104 76 -148q51 -33 143 -32q18 0 45 2t51 2h29v-76h-158q-117 0 -188 70q-78 76 -78 215zM383 1120l23 316h79l-30 -316h-72z" />
<glyph unicode="&#x16e;" horiz-adv-x="1251" d="M131 504v932h84v-971q0 -197 104 -301q113 -113 314 -113q174 0 286.5 110.5t112.5 303.5v971h88v-932q0 -215 -94 -350q-123 -178 -383 -179q-240 0 -371 127q-141 136 -141 402zM467 1665q0 59 41 106.5t110 47.5q61 0 103.5 -44t42.5 -104q0 -68 -40 -109.5 t-106 -41.5t-108.5 43t-42.5 102zM522 1665q0 -39 26.5 -65.5t69.5 -26.5q37 0 66 24.5t29 71.5q-4 37 -30 66.5t-65 29.5q-37 0 -66.5 -25.5t-29.5 -74.5z" />
<glyph unicode="&#x16f;" horiz-adv-x="1024" d="M125 356v617h80v-604q0 -139 100 -230q92 -84 215 -84q121 0 207 78q96 86 96 232v608h80v-608q0 -178 -123 -285q-111 -96 -268 -96q-158 0 -266 92q-121 102 -121 280zM365 1194q0 59 40.5 106.5t110.5 47.5q61 0 103.5 -44t42.5 -104q0 -68 -40 -109.5t-106 -41.5 t-108.5 43t-42.5 102zM420 1194q0 -39 26.5 -65.5t69.5 -26.5q37 0 65.5 24.5t28.5 71.5q-4 37 -29.5 66.5t-64.5 29.5q-37 0 -66.5 -25.5t-29.5 -74.5z" />
<glyph unicode="&#x17d;" horiz-adv-x="1024" d="M33 96q6 51 35 97l755 1067q12 16 22.5 36.5t10.5 34.5q0 29 -33 29h-702v76h659q96 0 134 -25t38 -72q0 -29 -7 -47t-25 -49l-764 -1079q-8 -14 -13 -23q-10 -18 -12 -32q10 -29 49 -29h785v-80h-840q-41 0 -66.5 27.5t-25.5 68.5zM242 1800h80l190 -231l197 231h84 l-224 -284h-108z" />
<glyph unicode="&#x17e;" horiz-adv-x="796" d="M43 76q4 33 21.5 70.5t52.5 76.5l512 621q8 16 8 24q0 29 -29 29h-520v76h559q45 0 64.5 -23.5t19.5 -60.5q0 -27 -7 -48.5t-24 -43.5l-507 -613q-25 -27 -42.5 -49t-19.5 -39q6 -16 45 -16h580v-80h-627q-29 0 -57.5 20.5t-28.5 55.5zM150 1333h79l191 -231l196 231h84 l-223 -284h-108z" />
<glyph unicode="&#x2c6;" horiz-adv-x="1228" d="M125 563l442 873h97l440 -873h-96l-392 785l-397 -785h-94z" />
<glyph unicode="&#x2da;" horiz-adv-x="456" d="M98 1194q0 59 41 106.5t111 47.5q61 0 103 -44t42 -104q0 -68 -40 -109.5t-105 -41.5q-66 0 -109 43t-43 102zM154 1194q0 -39 26.5 -65.5t69.5 -26.5q37 0 65.5 24.5t28.5 71.5q-4 37 -29.5 66.5t-64.5 29.5q-37 0 -66.5 -25.5t-29.5 -74.5z" />
<glyph unicode="&#x2dc;" horiz-adv-x="942" d="M-485 170q57 92 123.5 132t134.5 40q84 0 231.5 -67.5t229.5 -67.5q59 0 106 37q37 29 90 106l56 -45q-43 -82 -110.5 -130t-153.5 -48q-66 0 -277 94q-100 45 -172 45q-59 0 -109.5 -32.5t-93.5 -110.5z" />
<glyph unicode="&#x2000;" horiz-adv-x="909" />
<glyph unicode="&#x2001;" horiz-adv-x="1818" />
<glyph unicode="&#x2002;" horiz-adv-x="909" />
<glyph unicode="&#x2003;" horiz-adv-x="1818" />
<glyph unicode="&#x2004;" horiz-adv-x="606" />
<glyph unicode="&#x2005;" horiz-adv-x="454" />
<glyph unicode="&#x2006;" horiz-adv-x="303" />
<glyph unicode="&#x2007;" horiz-adv-x="303" />
<glyph unicode="&#x2008;" horiz-adv-x="227" />
<glyph unicode="&#x2009;" horiz-adv-x="362" />
<glyph unicode="&#x200a;" horiz-adv-x="100" />
<glyph unicode="&#x2010;" horiz-adv-x="679" d="M147 449v79h394v-79h-394z" />
<glyph unicode="&#x2011;" horiz-adv-x="679" d="M147 449v79h394v-79h-394z" />
<glyph unicode="&#x2012;" horiz-adv-x="679" d="M147 449v79h394v-79h-394z" />
<glyph unicode="&#x2013;" horiz-adv-x="1024" d="M0 449v75h1024v-75h-1024z" />
<glyph unicode="&#x2014;" horiz-adv-x="2048" d="M0 524h2044l4 -75h-2044z" />
<glyph unicode="&#x2018;" horiz-adv-x="456" d="M156 1436h84l59 -316h-76z" />
<glyph unicode="&#x2019;" horiz-adv-x="456" d="M156 1120l59 316h84l-68 -316h-75z" />
<glyph unicode="&#x201a;" horiz-adv-x="567" d="M160 -164l84 311h104l-104 -315z" />
<glyph unicode="&#x201c;" horiz-adv-x="679" d="M135 1436h84l62 -316h-76zM399 1436h88l58 -316h-74z" />
<glyph unicode="&#x201d;" horiz-adv-x="679" d="M135 1120l62 316h84l-68 -316h-78zM403 1120l58 316h88l-70 -316h-76z" />
<glyph unicode="&#x201e;" horiz-adv-x="679" d="M135 -168l62 315h84l-68 -315h-78zM403 -168l58 315h88l-70 -315h-76z" />
<glyph unicode="&#x2026;" horiz-adv-x="2048" d="M264 68q0 31 22.5 53t57.5 22q31 0 53.5 -22.5t22.5 -52.5q0 -31 -22.5 -55.5t-53.5 -24.5q-35 0 -57.5 22.5t-22.5 57.5zM948 80q0 31 22.5 53.5t53.5 22.5t55.5 -22.5t24.5 -53.5q0 -33 -23.5 -56.5t-56.5 -23.5q-31 0 -53.5 23.5t-22.5 56.5zM1628 80q0 33 23.5 54.5 t56.5 21.5q31 0 53.5 -22.5t22.5 -53.5t-22.5 -55.5t-53.5 -24.5q-33 0 -56.5 23.5t-23.5 56.5z" />
<glyph unicode="&#x202f;" horiz-adv-x="362" />
<glyph unicode="&#x2039;" horiz-adv-x="567" d="M104 487l248 318h97l-248 -318l248 -319h-97z" />
<glyph unicode="&#x203a;" horiz-adv-x="567" d="M125 168l244 319l-244 318h94l246 -318l-246 -319h-94z" />
<glyph unicode="&#x205f;" horiz-adv-x="454" />
<glyph unicode="&#x2122;" horiz-adv-x="2027" d="M176 1356v80h655v-80h-290v-764h-76v764h-289zM995 592v844h133l295 -709l293 709h139v-844h-75v751h-8l-328 -751h-35l-334 751l-4 -751h-76z" />
<glyph unicode="&#xe000;" horiz-adv-x="975" d="M0 975h975v-975h-975v975z" />
</font>
</defs>
</svg>
