<?xml version="1.0" standalone="no"?>
<!DOCTYPE svg PUBLIC "-//W3C//DTD SVG 1.1//EN" "http://www.w3.org/Graphics/SVG/1.1/DTD/svg11.dtd" >
<svg xmlns="http://www.w3.org/2000/svg">
<metadata>
This is a custom SVG webfont generated by Font Squirrel.
Copyright   : Copyright c 1992 Corel Corporation All Rights Reserved
</metadata>
<defs>
<font id="BahamasHeavyNormal" horiz-adv-x="1251" >
<font-face units-per-em="2048" ascent="1638" descent="-410" />
<missing-glyph horiz-adv-x="679" />
<glyph unicode=" "  horiz-adv-x="679" />
<glyph unicode="&#x09;" horiz-adv-x="679" />
<glyph unicode="&#xa0;" horiz-adv-x="679" />
<glyph unicode="!" horiz-adv-x="679" d="M100 227q0 111 84 179q74 59 156 59q90 0 160 -62q80 -70 80 -180q0 -117 -72 -182.5t-172 -65.5q-102 0 -169 73t-67 179zM113 1436h454l-43 -924h-364z" />
<glyph unicode="&#x22;" horiz-adv-x="679" d="M12 881v555h264v-555h-264zM403 881l5 555h260v-555h-265z" />
<glyph unicode="#" d="M84 387l8 213h197l30 236h-176l9 213h196l51 387h242l-57 -387h188l55 387h238l-53 -387h151l-4 -213h-178l-33 -236h156l-8 -213h-176l-56 -387h-235l51 387h-184l-56 -387h-235l55 387h-176zM524 600h189l30 236h-188z" />
<glyph unicode="$" d="M147 0v408h310q68 0 97.5 15t29.5 46q0 49 -80 106q-178 129 -252 222q-96 121 -96 270q0 154 98 250q88 88 229 102v176h209v-159h357v-404h-328q-29 0 -54.5 -11t-25.5 -34q2 -18 15.5 -36.5t52.5 -47.5q258 -188 326.5 -294.5t68.5 -239.5q0 -145 -120 -251t-292 -106 v-172h-209v160h-336z" />
<glyph unicode="%" horiz-adv-x="1779" d="M100 1067q0 154 99 266q111 127 288 127q156 0 268.5 -110.5t112.5 -249.5q0 -190 -116 -301q-109 -102 -277 -103q-150 0 -258 101q-117 106 -117 270zM303 -25l973 1485h205l-977 -1485h-201zM391 1079q0 -45 26.5 -71.5t65.5 -26.5q96 0 97 98q0 92 -97 92 q-39 0 -65.5 -23.5t-26.5 -68.5zM911 356q0 145 103 260q113 127 286 127q154 0 268.5 -110.5t114.5 -259.5q0 -190 -124 -301q-109 -96 -263 -97q-152 0 -264 105q-121 112 -121 276zM1204 356q0 -43 26.5 -69.5t65.5 -26.5q43 0 72 25.5t29 70.5t-28 71t-69 26 q-37 0 -66.5 -26t-29.5 -71z" />
<glyph unicode="&#x26;" horiz-adv-x="1632" d="M63 520q0 156 82 283q68 104 179 174q-68 57 -104 118.5t-36 121.5q0 96 92.5 157.5t264.5 61.5h600v-371h-377l332 -401q33 66 32 116q0 70 -36 135l335 177q41 -72 65 -152t24 -164q0 -106 -39 -207.5t-129 -208.5l292 -356h-512l-71 92q-98 -59 -201.5 -87.5 t-208.5 -28.5q-244 0 -414 151t-170 389zM492 545q0 -61 50 -109.5t126 -48.5q35 4 65.5 11.5t59.5 21.5l-222 264q-79 -63 -79 -139z" />
<glyph unicode="'" horiz-adv-x="643" d="M131 952l105 484h323l-194 -484h-234z" />
<glyph unicode="(" horiz-adv-x="831" d="M100 625q0 291 121 564t350 486l201 -239q-162 -168 -240.5 -374t-78.5 -425q0 -244 89 -465t238 -369l-200 -239q-233 217 -356.5 491.5t-123.5 569.5z" />
<glyph unicode=")" horiz-adv-x="831" d="M55 1436l201 235q233 -215 354 -490.5t121 -572.5q0 -291 -118.5 -561t-348.5 -483l-205 239q164 172 244 383q74 195 74 414q0 246 -87.5 467.5t-234.5 368.5z" />
<glyph unicode="*" horiz-adv-x="1064" d="M121 969l186 75l-182 76l139 240l160 -121l-29 197h281l-29 -197l158 117l139 -240l-180 -76l180 -75l-139 -240l-158 123l25 -201h-281l29 201l-160 -123z" />
<glyph unicode="+" horiz-adv-x="1228" d="M109 377v270h370v373h273v-373h372v-270h-372v-373h-273v373h-370z" />
<glyph unicode="," horiz-adv-x="624" d="M37 -143l102 596h406l-197 -596h-311z" />
<glyph unicode="-" horiz-adv-x="796" d="M117 373v282h563v-282h-563z" />
<glyph unicode="." horiz-adv-x="624" d="M72 231q0 109 70.5 169.5t168.5 60.5q102 0 168 -55q76 -63 76 -175q0 -119 -74 -186q-66 -61 -170 -61q-96 0 -164 61q-75 69 -75 186z" />
<glyph unicode="/" horiz-adv-x="907" d="M-8 -25l651 1485h277l-652 -1485h-276z" />
<glyph unicode="0" d="M88 500v440q0 100 37 198.5t98 166.5q72 80 175.5 117.5t234.5 37.5q258 0 399 -157q131 -145 131 -383v-388q0 -260 -140 -408.5t-394 -148.5q-131 0 -236.5 39t-177.5 121q-57 66 -92 165.5t-35 199.5zM532 492q0 -59 33 -89q27 -23 72 -22q35 0 57.5 31.5t22.5 107.5 v408q0 72 -23.5 102.5t-64.5 30.5q-53 0 -75 -38t-22 -91v-440z" />
<glyph unicode="1" d="M281 1079v357h612v-1436h-444v1079h-168z" />
<glyph unicode="2" d="M76 973q0 197 139 336q152 152 401 151q266 0 422 -157q125 -127 125 -275q0 -133 -47 -233q-39 -84 -140.5 -191.5t-207.5 -216.5h395v-387h-915q-59 0 -111.5 46t-52.5 114q0 35 15.5 67.5t47.5 71.5l533 594q29 33 29 76q0 37 -21.5 62.5t-62.5 25.5q-43 0 -72 -26.5 t-29 -69.5q4 -27 17.5 -47.5t42.5 -36.5l-277 -302q-111 70 -171 176.5t-60 221.5z" />
<glyph unicode="3" d="M117 0v403h446q61 0 89 28t28 69q0 37 -32 58.5t-85 21.5h-303v229l320 223h-433v404h709q86 0 165 -71t79 -169q0 -82 -62 -164q-72 -94 -215 -176q156 -53 240 -172q78 -109 78 -244q0 -180 -127 -305q-137 -135 -367 -135h-530z" />
<glyph unicode="4" d="M25 500q0 90 55 180l436 756h420l-496 -799h189v168l391 635v-807h164v-336h-164v-297h-432v293h-344q-98 0 -158.5 58.5t-60.5 148.5z" />
<glyph unicode="5" d="M160 0v403h385q49 0 75.5 25t26.5 59q0 37 -28.5 65t-73.5 28h-369v856h840v-392h-416v-88q250 0 393 -147q131 -135 131 -330q0 -197 -131 -329q-145 -150 -401 -150h-432z" />
<glyph unicode="6" d="M100 487q0 70 19.5 148t56.5 153l324 648h483l-434 -887q-6 -12 -12.5 -36t-8.5 -42q0 -45 31 -71.5t84 -26.5q41 0 64.5 29.5t23.5 68.5q0 47 -24.5 78t-77.5 31l194 389q172 -74 260 -207q80 -119 80 -266q0 -205 -141 -359q-150 -162 -363 -162q-254 0 -406.5 148.5 t-152.5 363.5z" />
<glyph unicode="7" d="M131 1049v387h612q182 0 248 -21q117 -37 117 -151q0 -53 -25 -131l-387 -1133h-469l389 1049h-485z" />
<glyph unicode="8" d="M88 465q0 113 44 203t136 147q-53 35 -87 105.5t-34 150.5q0 158 111 264q131 125 375 125q236 0 358 -121q104 -104 105 -264q0 -84 -31 -153.5t-84 -106.5q84 -47 131 -144.5t47 -213.5q0 -197 -129 -328q-152 -154 -430 -154q-238 0 -381 154q-131 141 -131 336z M516 479q0 -37 35 -65.5t82 -28.5q39 0 70.5 29.5t31.5 68.5q0 51 -30.5 82t-75.5 31q-47 0 -80 -31t-33 -86zM532 1012q0 -43 27 -67.5t70 -24.5q39 0 68.5 25.5t29.5 66.5q0 45 -31.5 70.5t-70.5 25.5q-93 0 -93 -96z" />
<glyph unicode="9" d="M104 936q0 209 134 360q143 164 370 164q274 0 424 -157q131 -139 131 -355q0 -133 -59 -256l-336 -676h-483l424 836q23 45 22 96q0 53 -25.5 85t-76.5 32t-84 -30.5t-33 -73.5q0 -84 113 -117l-176 -369q-170 55 -257.5 181t-87.5 280z" />
<glyph unicode=":" horiz-adv-x="624" d="M68 236q0 109 70.5 169t168.5 60q100 0 173 -60.5t73 -168.5q0 -117 -71.5 -182.5t-174.5 -65.5q-96 0 -164 61q-75 70 -75 187zM68 815q0 109 70.5 169t168.5 60q102 0 174 -58t72 -171q0 -117 -71.5 -184.5t-174.5 -67.5q-96 0 -164 64q-75 71 -75 188z" />
<glyph unicode=";" horiz-adv-x="624" d="M37 -147l98 600h406l-193 -600h-311zM72 809q0 115 70.5 179.5t156.5 64.5q100 0 174 -62q82 -70 82 -182q0 -117 -72.5 -183.5t-175.5 -66.5q-96 0 -162 62q-73 69 -73 188z" />
<glyph unicode="&#x3c;" horiz-adv-x="1228" d="M104 387v254l1024 434v-266l-700 -293h-16l716 -297v-266z" />
<glyph unicode="=" horiz-adv-x="1228" d="M100 152v272h1033v-272h-1033zM100 600v277h1033v-277h-1033z" />
<glyph unicode="&#x3e;" horiz-adv-x="1228" d="M104 -47v266l707 297l-707 293v266l1024 -434v-254z" />
<glyph unicode="?" horiz-adv-x="1064" d="M25 1128q53 147 206.5 241.5t327.5 94.5q203 0 346.5 -137t143.5 -340q0 -141 -80 -248q-88 -117 -248 -151v-72h-385v381h151q55 0 80 18.5t25 49.5t-26.5 59.5t-61.5 28.5q-27 0 -51.5 -17.5t-44.5 -58.5zM285 227q0 104 66.5 169t156.5 65q106 0 178 -55 q82 -63 82 -179q0 -119 -76 -186q-68 -61 -168 -61q-98 0 -166 61q-73 67 -73 186z" />
<glyph unicode="@" horiz-adv-x="1640" d="M68 709q0 307 224 529t560 222q285 0 491 -157q231 -176 232 -465l-2 -50q0 -217 -187 -370q-162 -133 -325 -133q-61 0 -95 25.5t-34 76.5q-78 -102 -201 -102q-127 0 -221 102q-102 111 -102 277q0 201 131 321q115 106 272 107q164 0 242 -111l18 94h189l-97 -508 q0 -82 41 -88q55 0 105 82q59 98 59 248q0 225 -154 344q-141 111 -378 111q-217 0 -363 -134q-166 -154 -166 -434q0 -260 189 -403q164 -125 401 -125q102 0 197.5 29.5t160.5 78.5h226q-111 -156 -279 -231q-152 -68 -350 -68l-55 3q-285 0 -502 204q-227 216 -227 525z M637 668q0 -72 53 -117q47 -39 107 -39q76 6 127 49q61 51 71 148q0 74 -42 119.5t-101 52.5q-70 0 -129 -42t-80 -122z" />
<glyph unicode="A" horiz-adv-x="1292" d="M96 0v911q0 221 144 379q156 170 403 170q215 0 369 -127q184 -154 184 -434v-899h-448v440h-136v365h136v135q0 51 -29 80t-76 29q-41 0 -69.5 -29t-28.5 -80v-940h-449z" />
<glyph unicode="B" horiz-adv-x="1292" d="M96 0v965q0 223 142.5 359t390.5 136t389 -139q127 -125 127 -305q0 -72 -20.5 -130.5t-67.5 -105.5q90 -55 136 -146t46 -198q0 -174 -111 -299q-121 -137 -313 -137h-207v381q82 0 123 35q33 27 33 63q0 43 -38 69.5t-118 26.5v318q47 0 74 24.5t27 59.5 q0 33 -23.5 58.5t-64.5 25.5q-51 0 -63.5 -39t-12.5 -150v-872h-449z" />
<glyph unicode="C" horiz-adv-x="1064" d="M68 713q0 295 180 497q201 225 540 226h207v-412h-143q-152 0 -244 -94q-84 -86 -84 -213q0 -125 86 -211q94 -94 254 -94l131 -4v-408h-215q-338 0 -534 221q-178 199 -178 492z" />
<glyph unicode="D" horiz-adv-x="1368" d="M113 0v1436h516q291 0 487 -226q184 -211 184 -485q0 -311 -188 -518t-487 -207v412q90 0 154.5 81.5t64.5 223.5q0 154 -77 230.5t-212 76.5v-1024h-442z" />
<glyph unicode="E" horiz-adv-x="1099" d="M76 743q0 279 192 480q205 213 520 213h236v-383h-160q-106 0 -176 -33q-84 -41 -121 -131h457v-344h-457q18 -61 82 -107q80 -57 195 -57h180v-381h-231q-330 0 -533 231q-184 211 -184 512z" />
<glyph unicode="F" horiz-adv-x="983" d="M96 0v924q0 270 133 395q123 117 367 117h340v-400h-231q-100 0 -130 -41t-30 -135h391v-368h-395l4 -492h-449z" />
<glyph unicode="G" horiz-adv-x="1632" d="M76 711q0 10 2 30.5t2 26.5q0 332 231 520q205 168 500 168q166 0 318.5 -57.5t275.5 -169.5l-318 -297q-113 113 -251 112q-129 0 -220.5 -95t-91.5 -249q0 -131 95.5 -222t216.5 -91q72 0 134 38t97 112h-311v348h817q0 -467 -238 -709q-199 -201 -499 -201 q-297 0 -519 193q-241 211 -241 543z" />
<glyph unicode="H" horiz-adv-x="1327" d="M109 0v1436h450v-500h209v500h453v-1436h-453v563h-209v-563h-450z" />
<glyph unicode="I" horiz-adv-x="643" d="M100 0v1436h453v-1436h-453z" />
<glyph unicode="J" horiz-adv-x="948" d="M43 0v412h96q119 0 150 6q80 16 80 131v887h442v-957q0 -205 -125 -336q-137 -143 -383 -143h-260z" />
<glyph unicode="K" horiz-adv-x="1292" d="M109 0v1432h444v-512q27 0 47.5 33.5t46.5 125.5l121 353h449l-113 -349q-47 -137 -62 -165q-37 -80 -90 -117q70 -16 133 -70q94 -82 95 -203v-528h-449v483q0 66 -46 83.5t-132 17.5v-584h-444z" />
<glyph unicode="L" horiz-adv-x="907" d="M100 449v987h449v-904q0 -72 38 -98t105 -26h228v-408h-412q-180 0 -294 122t-114 327z" />
<glyph unicode="M" horiz-adv-x="1779" d="M72 0l92 1108q0 193 80 276q72 76 225 76q152 0 221 -57q53 -43 78 -143l125 -484l106 441q41 162 129 210q57 33 195 33q125 0 199 -59q94 -78 94 -246l96 -1155h-432l-51 856l-180 -739q-12 -57 -57.5 -89t-102.5 -32q-53 0 -95 27.5t-55 76.5l-186 756l-49 -856h-432z " />
<glyph unicode="N" horiz-adv-x="1404" d="M113 0v1225q0 106 70.5 170.5t168.5 64.5q80 0 147.5 -40t108.5 -124l240 -465v605h444v-1209q0 -123 -66.5 -189.5t-168.5 -66.5q-82 0 -156 45t-113 127l-233 457v-600h-442z" />
<glyph unicode="O" horiz-adv-x="1632" d="M76 727q0 266 192 487q215 246 543 246q322 0 537 -223q209 -217 208 -528q0 -315 -231 -531q-217 -203 -502 -203q-309 0 -524 209q-223 215 -223 543zM532 709q0 -131 86 -209q80 -72 191 -72q119 0 201 74q90 80 90 215t-88 213q-78 70 -197 69q-115 0 -194 -73 q-89 -82 -89 -217z" />
<glyph unicode="P" horiz-adv-x="1175" d="M100 0v893q0 240 117 393q133 174 375 174q244 0 407.5 -128t163.5 -349l2 -53q0 -217 -118 -348q-139 -154 -410 -154q-8 2 -18.5 3t-14.5 1v395q72 0 108 34t36 83q0 45 -24 72.5t-73 27.5q-55 0 -78.5 -29.5t-23.5 -121.5v-893h-449z" />
<glyph unicode="Q" horiz-adv-x="1632" d="M72 743q0 309 219 513t520 204q285 0 502 -178q244 -201 243 -526l3 -56q0 -252 -158 -438q-143 -170 -385 -262v-197h-352v801h335v-72q41 29 62.5 77t21.5 108q0 113 -71 194q-82 92 -215 93q-129 0 -205 -82t-76 -195q0 -51 21.5 -103.5t58.5 -91.5v-532 q-217 61 -367 262q-157 211 -157 481z" />
<glyph unicode="R" d="M100 0v915q0 266 156 412q143 133 377 133q252 0 395 -143q127 -127 127 -309q0 -88 -36 -163t-103 -118q164 -49 164 -270v-457h-449v377q0 80 -28.5 101.5t-94.5 21.5v348q72 0 106 29.5t34 74.5t-28 77t-77 32q-59 0 -78.5 -43t-19.5 -125v-893h-445z" />
<glyph unicode="S" horiz-adv-x="1024" d="M47 0v408h334q49 0 73.5 16t24.5 41q0 27 -14 50.5t-53 55.5q-92 80 -182.5 164t-129.5 148q-49 82 -49 170q0 215 170 313q119 70 279 70h444v-404h-297q-100 0 -106 -49q8 -31 47 -63q246 -182 278 -215q133 -129 133 -277l2 -47q0 -190 -165 -293q-141 -88 -349 -88 h-440z" />
<glyph unicode="T" horiz-adv-x="907" d="M-4 1024v408h919v-408h-239v-1024h-445v1024h-235z" />
<glyph unicode="U" horiz-adv-x="1292" d="M84 479v957h448v-953q0 -49 29 -75.5t72 -26.5q45 0 73.5 26.5t28.5 75.5v953h445v-953q0 -223 -157 -365.5t-390 -142.5q-248 0 -398.5 142.5t-150.5 361.5z" />
<glyph unicode="V" horiz-adv-x="1216" d="M8 1436h461l139 -899l144 899h456l-256 -1176q-23 -117 -75 -180q-88 -104 -269 -105q-154 0 -229.5 60.5t-106.5 195.5z" />
<glyph unicode="W" horiz-adv-x="1896" d="M104 453v983h449v-953q0 -43 22.5 -67.5t57.5 -28.5q39 0 66.5 29.5t27.5 83.5v936h444v-944q0 -53 24 -80t60 -31q39 0 68 26.5t29 67.5v961h444v-975q0 -225 -160 -361q-143 -121 -348 -120q-100 0 -186 33.5t-150 103.5q-57 -68 -148 -102.5t-192 -34.5 q-201 0 -346 120q-162 136 -162 353z" />
<glyph unicode="X" horiz-adv-x="1292" d="M72 0v408q147 0 241 67q111 80 111 234q0 147 -100.5 237t-251.5 90v400h143q170 0 272 -56q78 -43 160 -147q90 125 225 172q88 31 211 31h142v-400q-195 0 -285 -106q-68 -80 -68 -203q0 -166 91.5 -245t261.5 -79v-403h-146q-143 0 -244.5 47t-187.5 154 q-92 -104 -191.5 -152.5t-219.5 -48.5h-164z" />
<glyph unicode="Y" horiz-adv-x="1140" d="M51 885v551h449v-504q0 -29 17.5 -44.5t45.5 -19.5q33 4 55.5 20.5t22.5 39.5v508h446v-551q0 -156 -82.5 -257.5t-211.5 -123.5v-504h-445v504q-145 27 -225 137q-72 101 -72 244z" />
<glyph unicode="Z" horiz-adv-x="1099" d="M8 281q0 49 15.5 92t44.5 80l477 571h-453v412h664q172 0 256 -84q72 -72 71 -185q0 -121 -59 -190l-453 -565h512v-412h-759q-154 0 -240 88q-76 78 -76 193z" />
<glyph unicode="[" horiz-adv-x="796" d="M184 -352l4 1931h517v-244h-185v-1444h185v-243h-521z" />
<glyph unicode="\" horiz-adv-x="567" d="M-156 1460h273l610 -1485h-274z" />
<glyph unicode="]" horiz-adv-x="796" d="M96 -109h180v1444h-180v244l516 4v-1935h-516v243z" />
<glyph unicode="^" horiz-adv-x="1228" d="M117 688l354 748h285l356 -748h-272l-224 508l-229 -508h-270z" />
<glyph unicode="_" horiz-adv-x="1024" d="M0 -152h1024v-104h-1024v104z" />
<glyph unicode="`" horiz-adv-x="567" d="M-59 1239l71 260l484 -244l-27 -106z" />
<glyph unicode="a" d="M63 516q0 244 156 388.5t406 144.5q279 0 430 -197q133 -172 133 -428v-424h-416v512q0 68 -44 105.5t-103 37.5t-104.5 -36.5t-45.5 -98.5q0 -70 37 -112.5t100 -42.5q35 4 53.5 8t55.5 18v-403q-31 -2 -57.5 -5t-63.5 -3q-233 0 -385 151.5t-152 384.5z" />
<glyph unicode="b" d="M76 616v816h411v-900q0 -68 39 -117.5t111 -49.5q61 0 104 40.5t43 106.5q0 63 -44 105t-103 42q-31 0 -52.5 -5t-52.5 -17v407q27 4 51.5 6.5t59.5 2.5q236 0 382 -144.5t146 -380.5q0 -252 -163 -407q-152 -145 -365 -146q-268 0 -422 181q-145 171 -145 460z" />
<glyph unicode="c" horiz-adv-x="872" d="M59 512q0 201 138 352q145 160 358 160h254v-352h-141q-80 0 -129 -31q-63 -41 -64 -129q0 -76 46 -118t126 -42h162v-352h-254q-211 0 -353.5 155.5t-142.5 356.5z" />
<glyph unicode="d" d="M76 524l4 13q0 240 142.5 376t373.5 136q33 0 63.5 -3.5t61.5 -5.5v-399q-18 6 -45 12t-55 6q-70 0 -111 -43t-41 -116q0 -59 45 -97t102 -38q63 0 105.5 38.5t42.5 116.5v916h412v-832q0 -285 -144 -452q-150 -176 -420 -177q-229 0 -382.5 155.5t-153.5 393.5z" />
<glyph unicode="e" horiz-adv-x="1216" d="M76 496q0 258 168 415q150 141 352 142q193 0 341 -106.5t212 -291.5l-512 -282l-117 207l201 112q-43 43 -100 43q-68 0 -120 -54t-52 -136q0 -104 58 -169t148 -65q137 0 260 142l230 -234q-88 -113 -229.5 -174t-294.5 -61q-227 0 -377 122q-168 140 -168 390z" />
<glyph unicode="f" horiz-adv-x="755" d="M76 0v1008q0 195 98 311.5t266 116.5h291v-340h-151q-61 0 -79 -17.5t-22 -54.5q2 -2 4 -12h248v-353h-248v-659h-407z" />
<glyph unicode="g" horiz-adv-x="1216" d="M63 532q0 201 154 355q162 162 395 162q213 0 377 -147.5t164 -352.5v-506q0 -256 -182 -379q-154 -104 -418 -104q-96 0 -195.5 14t-189.5 39v346q104 -20 194.5 -35.5t149.5 -15.5q104 0 163.5 39t59.5 125v428q0 74 -39 112.5t-96 38.5q-51 0 -90 -34.5t-39 -92.5 q0 -57 39 -98t98 -41q14 0 32.5 4t39.5 10v-370q-59 -29 -148 -29q-182 0 -315 131q-154 149 -154 401z" />
<glyph unicode="h" horiz-adv-x="1140" d="M76 0v1436h407v-459q100 72 222 72q147 0 249 -103q111 -113 111 -299v-647h-414v567q0 53 -23.5 83t-60.5 30q-31 0 -55.5 -26.5t-24.5 -73.5v-580h-411z" />
<glyph unicode="i" horiz-adv-x="567" d="M41 1356q0 98 73.5 164.5t170.5 66.5q92 0 165.5 -65.5t73.5 -165.5q0 -106 -70.5 -177t-164.5 -71q-96 0 -172 67.5t-76 180.5zM80 0v1024h407v-1024h-407z" />
<glyph unicode="j" horiz-adv-x="608" d="M-113 -55h154q37 0 52.5 29.5t15.5 101.5v948h407v-973q0 -238 -117 -356q-104 -106 -286 -107h-226v357zM68 1352q0 104 75.5 171.5t171.5 67.5q92 0 166 -67.5t74 -163.5q0 -109 -71.5 -182.5t-168.5 -73.5q-94 0 -168 65q-79 72 -79 183z" />
<glyph unicode="k" horiz-adv-x="1140" d="M76 0v1436h407v-719q55 0 92 103.5t72 203.5h418q-57 -162 -90 -244q-61 -150 -148 -192q123 -57 160 -111q61 -86 62 -284v-193h-412v299q0 47 -40 71.5t-114 24.5v-395h-407z" />
<glyph unicode="l" horiz-adv-x="567" d="M80 0v1436h407v-1436h-407z" />
<glyph unicode="m" horiz-adv-x="1667" d="M72 0v629q0 209 139 321q121 98 301 99q102 0 190.5 -35t133.5 -94q53 61 139 95t184 34q182 0 303 -103q137 -115 137 -321v-625h-411v549q0 135 -72 135q-45 0 -60.5 -43t-15.5 -82v-559h-411v567q0 113 -76 113q-74 0 -74 -117v-563h-407z" />
<glyph unicode="n" horiz-adv-x="1099" d="M63 0v621q0 195 133.5 311.5t352.5 116.5q215 0 349 -116t134 -312v-621h-407v553q0 55 -11 80q-16 39 -65 39q-43 0 -58.5 -31t-15.5 -74v-567h-412z" />
<glyph unicode="o" horiz-adv-x="1216" d="M68 516q0 217 153.5 375t370.5 158q244 0 401 -162q147 -152 148 -355q0 -256 -170 -415q-158 -150 -379 -150q-184 0 -340 133q-184 158 -184 416zM475 516q0 -57 37 -96t88 -39q55 0 97 35t42 96q0 55 -40 93t-91 38q-53 0 -93 -36t-40 -91z" />
<glyph unicode="p" d="M76 -412v828q0 264 137 442q145 190 387 191q270 0 426 -162q145 -152 145 -391q0 -197 -104 -338q-137 -184 -401 -185q-31 0 -65 2t-69 9v403q37 -20 93 -27q68 0 113.5 44.5t45.5 115.5q0 66 -41 105t-102 39q-66 0 -110 -46.5t-44 -134.5v-895h-411z" />
<glyph unicode="q" d="M80 532q0 233 170 381q156 135 371 136q227 0 380 -154q174 -174 175 -483v-824h-412v895q0 88 -42 132t-106 44q-59 0 -103 -37.5t-44 -105.5t44 -109.5t112 -41.5q49 6 96 22v-403q-27 -4 -61 -4h-52q-240 0 -379 137q-149 145 -149 415z" />
<glyph unicode="r" horiz-adv-x="872" d="M72 0v1024h393v-127q51 92 133 127q57 25 162 25h96v-353q-182 0 -252 -34q-121 -59 -121 -246l-4 -416h-407z" />
<glyph unicode="s" horiz-adv-x="907" d="M59 0v344h248q80 0 80 37q0 41 -80 72q-117 45 -176 112q-68 78 -68 191q0 143 125 215q92 53 199 53h424v-328h-236q-37 0 -43 -24q6 -35 72 -64q139 -66 197 -151q47 -72 47 -164q0 -129 -86 -207q-94 -86 -270 -86h-433z" />
<glyph unicode="t" horiz-adv-x="755" d="M63 387v961h408v-324h225v-352h-225v-201q0 -131 125 -131h100v-340h-227q-125 0 -197.5 29.5t-132.5 101.5q-39 49 -57.5 127t-18.5 129z" />
<glyph unicode="u" horiz-adv-x="1099" d="M63 428v596h412v-580q0 -41 21.5 -64.5t52.5 -27.5q35 4 55.5 26.5t20.5 70.5v575h407v-592q0 -215 -131 -336t-360 -121q-211 0 -340 113q-138 119 -138 340z" />
<glyph unicode="v" horiz-adv-x="1099" d="M29 1028h407l117 -641l111 641h407l-207 -823q-27 -113 -116 -177.5t-199 -64.5q-109 0 -193 60q-90 66 -120 182z" />
<glyph unicode="w" horiz-adv-x="1667" d="M68 403v621h411v-563q0 -61 17.5 -91t56.5 -30q76 0 76 135v549h411v-563q0 -63 22.5 -94t57.5 -31q68 0 68 121v567h411v-651q0 -186 -143 -295q-129 -98 -307 -98q-96 0 -181 33.5t-132 90.5q-117 -129 -332 -129q-178 0 -297 101q-139 116 -139 327z" />
<glyph unicode="x" horiz-adv-x="1024" d="M76 0v352h100q63 0 99 47t36 113q0 68 -35 111q-41 49 -116 49h-84v352h121q109 0 180.5 -33t134.5 -106q106 139 311 139h129v-352h-88q-74 0 -116.5 -49.5t-42.5 -118.5q0 -61 38.5 -106.5t108.5 -45.5h100v-352h-143q-86 0 -167 37t-130 102q-61 -74 -152 -110 q-72 -29 -145 -29h-139z" />
<glyph unicode="y" horiz-adv-x="1099" d="M68 416v608h407v-580q0 -43 20.5 -67.5t53.5 -28.5q35 4 55.5 28.5t20.5 76.5v571h407v-621q0 -152 -76.5 -252t-212.5 -151v-412h-395v412q-145 80 -205 160q-75 98 -75 256z" />
<glyph unicode="z" horiz-adv-x="1064" d="M51 201q0 47 23.5 94t60.5 82l330 303h-334v348h574q166 0 243 -65q63 -53 64 -148q0 -49 -17.5 -94t-42.5 -66l-327 -311h379v-344h-693q-127 0 -193.5 58.5t-66.5 142.5z" />
<glyph unicode="{" horiz-adv-x="796" d="M29 524v203q100 0 149 38t49 91v461q0 109 90.5 187.5t182.5 78.5h209v-186q-150 0 -150 -113v-444q0 -117 -74 -170q-57 -41 -153 -41v-8q227 0 227 -234v-420q0 -61 16 -88q25 -39 93 -39h41v-192h-197q-106 0 -186 67q-98 84 -99 238v387q0 96 -39.5 134t-158.5 50z " />
<glyph unicode="|" horiz-adv-x="456" d="M92 0v1436h273v-1436h-273z" />
<glyph unicode="}" horiz-adv-x="796" d="M92 -156h33q68 0 91.5 32t23.5 124v403q0 100 57 148.5t168 60.5v9q-229 0 -229 215v419q0 90 -30 120t-114 30v182h176q139 0 224 -88q76 -80 75 -194v-437q0 -84 70 -120q41 -23 135 -35v-201q-84 0 -142.5 -29.5t-58.5 -97.5v-436q0 -141 -106 -225q-86 -68 -180 -68 h-193v188z" />
<glyph unicode="~" horiz-adv-x="1228" d="M139 553q53 100 127 141q57 33 129 33q78 0 235.5 -69.5t205.5 -69.5q90 0 176 147l75 -264q-66 -96 -127 -135t-124 -39q-57 0 -273 94q-102 45 -176 45q-49 0 -84 -25.5t-88 -117.5z" />
<glyph unicode="&#xa2;" horiz-adv-x="567" d="M-31 1436h219q0 -74 37 -117q29 -33 66 -37q39 0 67 35q37 43 37 121h217q0 -150 -102 -244q-94 -88 -227 -88q-111 0 -203 80q-111 96 -111 250z" />
<glyph unicode="&#xa3;" horiz-adv-x="907" d="M100 430v1006h449v-527l244 113l2 -264l-246 -125v-101q0 -72 38 -98t105 -26h228v-408h-412q-178 0 -293 116.5t-115 313.5z" />
<glyph unicode="&#xa5;" horiz-adv-x="1292" d="M96 0v911q0 221 144 379q156 170 403 170q215 0 369 -127q184 -154 184 -434v-899h-448v440h-136v365h136v135q0 51 -29 80t-76 29q-41 0 -69.5 -29t-28.5 -80v-940h-449zM676 -449l188 396h330l-199 -396h-319z" />
<glyph unicode="&#xa8;" horiz-adv-x="567" d="M-33 1307q0 61 39 95t90 34q57 0 96 -33t39 -96t-39.5 -99.5t-95.5 -36.5q-51 0 -90 37.5t-39 98.5zM342 1311q0 57 40 91t93 34q55 0 92 -33t37 -92q0 -66 -38 -104t-91 -38q-51 0 -92 39.5t-41 102.5z" />
<glyph unicode="&#xa9;" horiz-adv-x="1640" d="M47 709l4 34q0 346 252 545q219 172 516 172q326 0 543 -196q229 -209 229 -551q0 -330 -221 -539q-211 -199 -514 -199q-328 0 -557 189q-252 207 -252 545zM297 739q0 -256 149.5 -411.5t393.5 -155.5q221 0 362 157.5t141 383.5q0 231 -135 387q-145 168 -385 168 q-227 0 -376.5 -154t-149.5 -375zM436 727q0 174 103 295q115 133 305 133q129 0 225 -72q111 -82 131 -235h-184q-12 68 -54 94.5t-114 26.5q-88 0 -138.5 -65.5t-50.5 -164.5q0 -102 53.5 -179t143.5 -77q66 0 115 35t49 94h184q0 -119 -94 -211q-104 -102 -258 -102 q-190 0 -309 135q-107 121 -107 293z" />
<glyph unicode="&#xab;" horiz-adv-x="1099" d="M47 516l242 256h315l-244 -256l244 -264h-315zM500 516l243 256h318l-246 -256l246 -264h-318z" />
<glyph unicode="&#xad;" horiz-adv-x="796" d="M117 373v282h563v-282h-563z" />
<glyph unicode="&#xae;" horiz-adv-x="1640" d="M51 743q0 344 258 545q221 172 502 172q313 0 537 -188q248 -209 247 -563q0 -328 -237 -535q-223 -195 -543 -194q-313 0 -530 198q-234 213 -234 565zM297 739q0 -244 143.5 -409.5t370.5 -165.5l8 4q244 0 389 166q135 154 135 375q0 258 -152.5 408.5t-379.5 150.5 q-225 0 -369.5 -158t-144.5 -371zM516 315v809h293q350 0 350 -239q0 -117 -57.5 -169t-169.5 -52l209 -349h-189l-180 336h-67v-336h-189zM705 797h172q43 0 67.5 26.5t24.5 61.5q0 41 -25.5 68.5t-71.5 27.5h-167v-184z" />
<glyph unicode="&#xb4;" horiz-adv-x="567" d="M90 1219l463 235l78 -256l-508 -90z" />
<glyph unicode="&#xb8;" horiz-adv-x="567" d="M184 -164l60 193h147l-22 -72q74 0 127 -53.5t53 -126.5q0 -84 -53 -142q-66 -72 -197 -71q-23 0 -52.5 3t-45.5 5v147q14 -4 43.5 -10t44.5 -6q41 0 66.5 14.5t25.5 42.5q0 55 -53 64q-43 -8 -56 -37z" />
<glyph unicode="&#xbb;" horiz-adv-x="1099" d="M43 252l246 264l-246 256h317l244 -256l-244 -264h-317zM500 252l243 264l-243 256h315l242 -256l-242 -264h-315z" />
<glyph unicode="&#xc1;" horiz-adv-x="1292" d="M96 0v911q0 221 144 379q156 170 403 170q215 0 369 -127q184 -154 184 -434v-899h-448v440h-136v365h136v135q0 51 -29 80t-76 29q-41 0 -69.5 -29t-28.5 -80v-940h-449zM514 1630l463 236l78 -256l-508 -90z" />
<glyph unicode="&#xc9;" horiz-adv-x="1099" d="M76 743q0 279 192 480q205 213 520 213h236v-383h-160q-106 0 -176 -33q-84 -41 -121 -131h457v-344h-457q18 -61 82 -107q80 -57 195 -57h180v-381h-231q-330 0 -533 231q-184 211 -184 512zM471 1630l463 236l78 -256l-508 -90z" />
<glyph unicode="&#xcd;" horiz-adv-x="643" d="M100 0v1436h453v-1436h-453zM127 1630l463 236l78 -256l-508 -90z" />
<glyph unicode="&#xd3;" horiz-adv-x="1632" d="M76 727q0 266 192 487q215 246 543 246q322 0 537 -223q209 -217 208 -528q0 -315 -231 -531q-217 -203 -502 -203q-309 0 -524 209q-223 215 -223 543zM532 709q0 -131 86 -209q80 -72 191 -72q119 0 201 74q90 80 90 215t-88 213q-78 70 -197 69q-115 0 -194 -73 q-89 -82 -89 -217zM606 1630l463 236l78 -256l-508 -90z" />
<glyph unicode="&#xda;" horiz-adv-x="1292" d="M84 479v957h448v-953q0 -49 29 -75.5t72 -26.5q45 0 73.5 26.5t28.5 75.5v953h445v-953q0 -223 -157 -365.5t-390 -142.5q-248 0 -398.5 142.5t-150.5 361.5zM446 1630l463 236l78 -256l-508 -90z" />
<glyph unicode="&#xdd;" horiz-adv-x="1140" d="M51 885v551h449v-504q0 -29 17.5 -44.5t45.5 -19.5q33 4 55.5 20.5t22.5 39.5v508h446v-551q0 -156 -82.5 -257.5t-211.5 -123.5v-504h-445v504q-145 27 -225 137q-72 101 -72 244zM446 1630l463 236l78 -256l-508 -90z" />
<glyph unicode="&#xe1;" d="M63 516q0 244 156 388.5t406 144.5q279 0 430 -197q133 -172 133 -428v-424h-416v512q0 68 -44 105.5t-103 37.5t-104.5 -36.5t-45.5 -98.5q0 -70 37 -112.5t100 -42.5q35 4 53.5 8t55.5 18v-403q-31 -2 -57.5 -5t-63.5 -3q-233 0 -385 151.5t-152 384.5zM446 1219 l463 235l78 -256l-508 -90z" />
<glyph unicode="&#xe9;" horiz-adv-x="1216" d="M76 496q0 258 168 415q150 141 352 142q193 0 341 -106.5t212 -291.5l-512 -282l-117 207l201 112q-43 43 -100 43q-68 0 -120 -54t-52 -136q0 -104 58 -169t148 -65q137 0 260 142l230 -234q-88 -113 -229.5 -174t-294.5 -61q-227 0 -377 122q-168 140 -168 390z M379 1219l463 235l78 -256l-508 -90z" />
<glyph unicode="&#xed;" horiz-adv-x="569" d="M80 0v1024h407v-1024h-407zM96 1219l463 235l78 -256l-508 -90z" />
<glyph unicode="&#xf3;" horiz-adv-x="1216" d="M68 516q0 217 153.5 375t370.5 158q244 0 401 -162q147 -152 148 -355q0 -256 -170 -415q-158 -150 -379 -150q-184 0 -340 133q-184 158 -184 416zM391 1219l463 235l78 -256l-508 -90zM475 516q0 -57 37 -96t88 -39q55 0 97 35t42 96q0 55 -40 93t-91 38q-53 0 -93 -36 t-40 -91z" />
<glyph unicode="&#xfa;" horiz-adv-x="1099" d="M63 428v596h412v-580q0 -41 21.5 -64.5t52.5 -27.5q35 4 55.5 26.5t20.5 70.5v575h407v-592q0 -215 -131 -336t-360 -121q-211 0 -340 113q-138 119 -138 340zM360 1219l463 235l78 -256l-508 -90z" />
<glyph unicode="&#xfd;" horiz-adv-x="1099" d="M68 416v608h407v-580q0 -43 20.5 -67.5t53.5 -28.5q35 4 55.5 28.5t20.5 76.5v571h407v-621q0 -152 -76.5 -252t-212.5 -151v-412h-395v412q-145 80 -205 160q-75 98 -75 256zM336 1219l463 235l78 -256l-508 -90z" />
<glyph unicode="&#x10c;" horiz-adv-x="1064" d="M68 713q0 295 180 497q201 225 540 226h207v-412h-143q-152 0 -244 -94q-84 -86 -84 -213q0 -125 86 -211q94 -94 254 -94l131 -4v-408h-215q-338 0 -534 221q-178 199 -178 492zM328 1878h245l84 -92l93 92h243l-331 -358z" />
<glyph unicode="&#x10d;" horiz-adv-x="872" d="M59 512q0 201 138 352q145 160 358 160h254v-352h-141q-80 0 -129 -31q-63 -41 -64 -129q0 -76 46 -118t126 -42h162v-352h-254q-211 0 -353.5 155.5t-142.5 356.5zM193 1466h245l84 -92l92 92h244l-332 -358z" />
<glyph unicode="&#x10e;" horiz-adv-x="1368" d="M113 0v1436h516q291 0 487 -226q184 -211 184 -485q0 -311 -188 -518t-487 -207v412q90 0 154.5 81.5t64.5 223.5q0 154 -77 230.5t-212 76.5v-1024h-442zM254 1878h246l84 -92l92 92h244l-332 -358z" />
<glyph unicode="&#x10f;" horiz-adv-x="1347" d="M76 524l4 13q0 240 142.5 376t373.5 136q33 0 63.5 -3.5t61.5 -5.5v-399q-18 6 -45 12t-55 6q-70 0 -111 -43t-41 -116q0 -59 45 -97t102 -38q63 0 105.5 38.5t42.5 116.5v916h412v-832q0 -285 -144 -452q-150 -176 -420 -177q-229 0 -382.5 155.5t-153.5 393.5z M1208 1077l17 359h211l-86 -359h-142z" />
<glyph unicode="&#x11a;" horiz-adv-x="1099" d="M76 743q0 279 192 480q205 213 520 213h236v-383h-160q-106 0 -176 -33q-84 -41 -121 -131h457v-344h-457q18 -61 82 -107q80 -57 195 -57h180v-381h-231q-330 0 -533 231q-184 211 -184 512zM438 1878h246l84 -92l92 92h244l-332 -358z" />
<glyph unicode="&#x11b;" horiz-adv-x="1216" d="M76 496q0 258 168 415q150 141 352 142q193 0 341 -106.5t212 -291.5l-512 -282l-117 207l201 112q-43 43 -100 43q-68 0 -120 -54t-52 -136q0 -104 58 -169t148 -65q137 0 260 142l230 -234q-88 -113 -229.5 -174t-294.5 -61q-227 0 -377 122q-168 140 -168 390z M264 1466h246l84 -92l92 92h244l-332 -358z" />
<glyph unicode="&#x147;" horiz-adv-x="1404" d="M113 0v1225q0 106 70.5 170.5t168.5 64.5q80 0 147.5 -40t108.5 -124l240 -465v605h444v-1209q0 -123 -66.5 -189.5t-168.5 -66.5q-82 0 -156 45t-113 127l-233 457v-600h-442zM346 1878h246l84 -92l92 92h244l-332 -358z" />
<glyph unicode="&#x148;" horiz-adv-x="1099" d="M63 0v621q0 195 133.5 311.5t352.5 116.5q215 0 349 -116t134 -312v-621h-407v553q0 55 -11 80q-16 39 -65 39q-43 0 -58.5 -31t-15.5 -74v-567h-412zM211 1466h246l84 -92l92 92h244l-332 -358z" />
<glyph unicode="&#x158;" d="M100 0v915q0 266 156 412q143 133 377 133q252 0 395 -143q127 -127 127 -309q0 -88 -36 -163t-103 -118q164 -49 164 -270v-457h-449v377q0 80 -28.5 101.5t-94.5 21.5v348q72 0 106 29.5t34 74.5t-28 77t-77 32q-59 0 -78.5 -43t-19.5 -125v-893h-445zM303 1878h246 l84 -92l92 92h244l-332 -358z" />
<glyph unicode="&#x159;" horiz-adv-x="872" d="M72 0v1024h393v-127q51 92 133 127q57 25 162 25h96v-353q-182 0 -252 -34q-121 -59 -121 -246l-4 -416h-407zM113 1466h245l84 -92l93 92h243l-332 -358z" />
<glyph unicode="&#x160;" horiz-adv-x="1024" d="M47 0v408h334q49 0 73.5 16t24.5 41q0 27 -14 50.5t-53 55.5q-92 80 -182.5 164t-129.5 148q-49 82 -49 170q0 215 170 313q119 70 279 70h444v-404h-297q-100 0 -106 -49q8 -31 47 -63q246 -182 278 -215q133 -129 133 -277l2 -47q0 -190 -165 -293q-141 -88 -349 -88 h-440zM193 1878h245l84 -92l92 92h244l-332 -358z" />
<glyph unicode="&#x161;" horiz-adv-x="907" d="M59 0v344h248q80 0 80 37q0 41 -80 72q-117 45 -176 112q-68 78 -68 191q0 143 125 215q92 53 199 53h424v-328h-236q-37 0 -43 -24q6 -35 72 -64q139 -66 197 -151q47 -72 47 -164q0 -129 -86 -207q-94 -86 -270 -86h-433zM131 1466h246l84 -92l92 92h244l-332 -358z " />
<glyph unicode="&#x164;" horiz-adv-x="907" d="M-4 1024v408h919v-408h-239v-1024h-445v1024h-235zM119 1878h246l84 -92l92 92h243l-331 -358z" />
<glyph unicode="&#x165;" horiz-adv-x="755" d="M63 387v961h408v-324h225v-352h-225v-201q0 -131 125 -131h100v-340h-227q-125 0 -197.5 29.5t-132.5 101.5q-39 49 -57.5 127t-18.5 129zM553 1077l16 359h211l-86 -359h-141z" />
<glyph unicode="&#x16e;" horiz-adv-x="1292" d="M84 479v957h448v-953q0 -49 29 -75.5t72 -26.5q45 0 73.5 26.5t28.5 75.5v953h445v-953q0 -223 -157 -365.5t-390 -142.5q-248 0 -398.5 142.5t-150.5 361.5zM440 1698q0 80 57.5 139t137.5 59q92 0 149.5 -57t57.5 -135q0 -98 -61.5 -155.5t-145.5 -57.5q-68 0 -125 49 q-70 62 -70 158zM578 1700q0 -31 17 -50.5t42 -19.5q29 0 50.5 17.5t21.5 50.5q0 27 -20.5 45t-43.5 18q-27 0 -47 -16t-20 -45z" />
<glyph unicode="&#x16f;" horiz-adv-x="1099" d="M63 428v596h412v-580q0 -41 21.5 -64.5t52.5 -27.5q35 4 55.5 26.5t20.5 70.5v575h407v-592q0 -215 -131 -336t-360 -121q-211 0 -340 113q-138 119 -138 340zM348 1286q0 80 57.5 139.5t137.5 59.5q92 0 149.5 -57.5t57.5 -135.5q0 -98 -61.5 -155.5t-145.5 -57.5 q-68 0 -125 49q-70 62 -70 158zM485 1288q0 -31 17.5 -50t42.5 -19q29 0 50 17t21 50q0 27 -20.5 45.5t-42.5 18.5q-27 0 -47.5 -16.5t-20.5 -45.5z" />
<glyph unicode="&#x17d;" horiz-adv-x="1099" d="M8 281q0 49 15.5 92t44.5 80l477 571h-453v412h664q172 0 256 -84q72 -72 71 -185q0 -121 -59 -190l-453 -565h512v-412h-759q-154 0 -240 88q-76 78 -76 193zM217 1878h246l84 -92l92 92h244l-332 -358z" />
<glyph unicode="&#x17e;" horiz-adv-x="1064" d="M51 201q0 47 23.5 94t60.5 82l330 303h-334v348h574q166 0 243 -65q63 -53 64 -148q0 -49 -17.5 -94t-42.5 -66l-327 -311h379v-344h-693q-127 0 -193.5 58.5t-66.5 142.5zM248 1466h246l84 -92l92 92h243l-331 -358z" />
<glyph unicode="&#x2c6;" horiz-adv-x="1228" d="M117 688l354 748h285l356 -748h-272l-224 508l-229 -508h-270z" />
<glyph unicode="&#x2da;" horiz-adv-x="419" d="M16 1286q0 80 57.5 139.5t137.5 59.5q92 0 149.5 -57.5t57.5 -135.5q0 -98 -61.5 -155.5t-145.5 -57.5q-68 0 -125 49q-70 62 -70 158zM154 1288q0 -31 17 -50t42 -19q29 0 50.5 17t21.5 50q0 27 -20.5 45.5t-43.5 18.5q-27 0 -47 -16.5t-20 -45.5z" />
<glyph unicode="&#x2dc;" horiz-adv-x="679" d="M-475 383q53 100 127 141q57 33 129 33q78 0 235.5 -69.5t205.5 -69.5q90 0 176 147l75 -264q-66 -96 -127 -135t-124 -39q-57 0 -273 94q-102 45 -176 45q-49 0 -84 -25.5t-88 -117.5z" />
<glyph unicode="&#x2000;" horiz-adv-x="948" />
<glyph unicode="&#x2001;" horiz-adv-x="1896" />
<glyph unicode="&#x2002;" horiz-adv-x="948" />
<glyph unicode="&#x2003;" horiz-adv-x="1896" />
<glyph unicode="&#x2004;" horiz-adv-x="630" />
<glyph unicode="&#x2005;" horiz-adv-x="473" />
<glyph unicode="&#x2006;" horiz-adv-x="315" />
<glyph unicode="&#x2007;" horiz-adv-x="315" />
<glyph unicode="&#x2008;" horiz-adv-x="235" />
<glyph unicode="&#x2009;" horiz-adv-x="378" />
<glyph unicode="&#x200a;" horiz-adv-x="104" />
<glyph unicode="&#x2010;" horiz-adv-x="796" d="M117 373v282h563v-282h-563z" />
<glyph unicode="&#x2011;" horiz-adv-x="796" d="M117 373v282h563v-282h-563z" />
<glyph unicode="&#x2012;" horiz-adv-x="796" d="M117 373v282h563v-282h-563z" />
<glyph unicode="&#x2013;" horiz-adv-x="1024" d="M0 373v278h1024v-278h-1024z" />
<glyph unicode="&#x2014;" horiz-adv-x="2048" d="M0 373v282h2044h8v-282h-2044h-8z" />
<glyph unicode="&#x2018;" horiz-adv-x="643" d="M88 952l197 484h231l-108 -484h-320z" />
<glyph unicode="&#x2019;" horiz-adv-x="643" d="M131 952l105 484h323l-194 -484h-234z" />
<glyph unicode="&#x201a;" horiz-adv-x="534" d="M80 -141l45 483h324l-138 -483h-231z" />
<glyph unicode="&#x201c;" horiz-adv-x="907" d="M59 952l138 484h227l-39 -484h-326zM457 952l135 484h227l-39 -484h-323z" />
<glyph unicode="&#x201d;" horiz-adv-x="907" d="M88 948l41 488h324l-138 -488h-227zM483 948l41 488h324l-135 -488h-230z" />
<glyph unicode="&#x201e;" horiz-adv-x="907" d="M80 -147l45 483h324l-138 -483h-231zM475 -147l45 483h320l-131 -483h-234z" />
<glyph unicode="&#x2026;" horiz-adv-x="2048" d="M96 223q0 113 73 177.5t175 64.5q100 0 172 -62.5t72 -179.5t-71 -180t-177 -63q-100 0 -168 59q-76 67 -76 184zM780 223q0 113 71 175.5t173 62.5q100 0 168 -58q76 -66 76 -180q0 -115 -73 -179t-175 -64q-100 0 -166 59q-74 65 -74 184zM1464 227q0 111 72 172.5 t172 61.5t170 -60.5t70 -173.5q0 -115 -71 -181t-173 -66q-100 0 -166 59q-74 67 -74 188z" />
<glyph unicode="&#x202f;" horiz-adv-x="378" />
<glyph unicode="&#x2039;" horiz-adv-x="643" d="M43 512l246 260h315l-244 -260l244 -260h-315z" />
<glyph unicode="&#x203a;" horiz-adv-x="643" d="M41 252l244 260l-244 260h315l244 -260l-244 -260h-315z" />
<glyph unicode="&#x205f;" horiz-adv-x="473" />
<glyph unicode="&#x2122;" horiz-adv-x="2048" d="M72 1251v185h708v-185h-231v-659h-246v659h-231zM868 592v844h320l180 -488l184 488h320v-844h-221v553l-191 -553h-180l-188 553l-5 -553h-219z" />
<glyph unicode="&#xe000;" horiz-adv-x="1025" d="M0 1025h1025v-1025h-1025v1025z" />
</font>
</defs>
</svg>
